SplineFontDB: 3.2
FontName: ChromSymbol
FullName: Chrom Symbol
FamilyName: Chrom Symbol
Weight: Regular
Copyright:                                           
Version: 001.001
ItalicAngle: 0
UnderlinePosition: -100
UnderlineWidth: 50
Ascent: 800
Descent: 200
InvalidEm: 0
sfntRevision: 0x00000000
LayerCount: 2
Layer: 0 0 "Back" 1
Layer: 1 0 "Fore" 0
StyleMap: 0x0000
FSType: 0
OS2Version: 0
OS2_WeightWidthSlopeOnly: 0
OS2_UseTypoMetrics: 0
CreationTime: 0
ModificationTime: 1757284880
OS2TypoAscent: 0
OS2TypoAOffset: 0
OS2TypoDescent: 0
OS2TypoDOffset: 0
OS2TypoLinegap: 0
OS2WinAscent: 0
OS2WinAOffset: 0
OS2WinDescent: 0
OS2WinDOffset: 0
HheadAscent: 0
HheadAOffset: 0
HheadDescent: 0
HheadDOffset: 0
DEI: 91125
Encoding: AdobeStandard
UnicodeInterp: none
NameList: AGL For New Fonts
DisplaySize: -48
AntiAlias: 1
FitToEm: 0
BeginPrivate: 5
BlueValues 23 [-19 0 487 500 673 688]
BlueScale 1 0
StdHW 4 [92]
StdVW 4 [85]
StemSnapH 7 [20 92]
EndPrivate
BeginChars: 409 190

StartChar: exclam
Encoding: 33 33 1
Width: 333
Flags: HMW
HStem: -17 112<168.5 199.5> 652 20G<173 195>
VStem: 128 112<23.5 54.5 597 629>
LayerCount: 2
Fore
SplineSet
128 39 m 0
 128 70 153 95 184 95 c 0
 215 95 240 70 240 39 c 0
 240 8 215 -17 184 -17 c 0
 153 -17 128 8 128 39 c 0
174 208 m 2
 128 597 l 1
 128 662 162 672 184 672 c 0
 206 672 240 661 240 597 c 0
 240 554 231 500 194 208 c 0
 192 196 188 190 184 190 c 0
 180 190 175 196 174 208 c 2
EndSplineSet
EndChar

StartChar: numbersign
Encoding: 35 35 2
Width: 500
Flags: HMW
HStem: -16 21G<94 94 94 141 266 266 266 313> 192 46<26 123 20 129 26 170 176 294 348 445> 420 46<60 154 54 160 60 201 207 325 379 475> 653 20G<189 236 236 236 360 407 407 407>
VStem: 20 461<192 466>
LayerCount: 2
Fore
SplineSet
176 238 m 1
 301 238 l 1
 325 420 l 1
 201 420 l 1
 176 238 l 1
94 -16 m 1
 123 192 l 1
 20 192 l 1
 26 238 l 1
 129 238 l 1
 154 420 l 1
 54 420 l 1
 60 466 l 1
 160 466 l 1
 189 673 l 1
 236 673 l 1
 207 466 l 1
 332 466 l 1
 360 673 l 1
 407 673 l 1
 379 466 l 1
 481 466 l 1
 475 420 l 1
 372 420 l 1
 348 238 l 1
 451 238 l 1
 445 192 l 1
 341 192 l 1
 313 -16 l 1
 266 -16 l 1
 294 192 l 1
 170 192 l 1
 141 -16 l 1
 94 -16 l 1
EndSplineSet
EndChar

StartChar: percent
Encoding: 37 37 3
Width: 833
Flags: HMW
HStem: -46 38 266 49<175.5 236> 300 38<668 697.5> 558 28 635 20G<233 309 612 667 667 667>
VStem: 63 81<372 433 372 445.5> 364 29<511 521.5 511 533> 437 75<58.5 124.5 58.5 143.5> 741 31<168.5 231.5>
LayerCount: 2
Fore
SplineSet
512 78 m 0
 512 39 526 2 557 2 c 0
 658 2 741 127 741 210 c 0
 741 253 727 300 668 300 c 0
 596 301 512 171 512 78 c 0
437 89 m 0
 437 198 533 338 665 338 c 0
 751 338 772 272 772 217 c 0
 772 114 683 -36 563 -36 c 0
 486 -36 437 9 437 89 c 0
360 579 m 1
 338 588 305 602 289 615 c 1
 223 605 144 477 144 389 c 0
 144 355 157 315 194 315 c 0
 294 315 364 438 364 519 c 0
 364 547 362 558 360 579 c 1
171 -36 m 1
 573 583 l 1
 548 567 508 559 471 558 c 0
 438 557 407 563 390 573 c 1
 393 553 393 532 393 511 c 0
 392 411 303 266 169 266 c 0
 109 266 63 304 63 379 c 0
 63 512 177 655 289 655 c 0
 329 655 347 635 373 614 c 0
 381 610 412 585 468 586 c 0
 515 586 603 618 612 655 c 1
 667 655 l 1
 226 -36 l 1
 171 -36 l 1
EndSplineSet
EndChar

StartChar: ampersand
Encoding: 38 38 4
Width: 778
Flags: HMW
HStem: -18 59<226.5 279.5> -18 75<599 638> 402 18<495 512.5 681 706> 621 40<333.5 375>
VStem: 41 93<142.5 198.5> 196 76<518.5 554.5> 272 164<518.5 559.5 502 562.5> 436 50<502 559.5>
LayerCount: 2
Fore
SplineSet
398 106 m 1
 399 109 l 1
 316 212 293 260 246 340 c 1
 205 309 134 271 134 182 c 0
 134 103 191 41 262 41 c 0
 329 41 390 97 398 106 c 1
305 410 m 1
 357 440 436 473 436 531 c 0
 436 588 393 621 357 621 c 0
 310 621 272 584 272 541 c 0
 272 496 290 447 305 410 c 1
426 82 m 1
 397 51 342 -18 217 -18 c 0
 128 -18 41 30 41 138 c 0
 41 259 122 303 232 374 c 1
 215 422 196 450 196 503 c 0
 196 606 258 661 358 661 c 0
 424 661 486 605 486 543 c 0
 486 450 412 418 325 380 c 1
 359 318 402 243 464 171 c 1
 486 187 553 305 553 362 c 0
 553 388 530 402 495 402 c 1
 495 420 l 1
 706 420 l 1
 706 402 l 1
 656 402 632 360 609 324 c 0
 570 263 550 219 485 143 c 1
 516 112 569 57 629 57 c 0
 653 57 692 77 734 114 c 1
 750 100 l 1
 717 23 678 -18 598 -18 c 0
 518 -18 447 61 426 82 c 1
EndSplineSet
EndChar

StartChar: parenleft
Encoding: 40 40 5
Width: 333
Flags: HMW
HStem: -191 21G<290 290> 653 20G<290 290>
VStem: 53 82<161 330 161 369.5>
LayerCount: 2
Fore
SplineSet
290 -191 m 1
 195 -169 53 11 53 241 c 0
 53 498 182 648 290 673 c 1
 300 656 l 1
 169 571 135 416 135 244 c 0
 135 78 178 -83 300 -174 c 1
 290 -191 l 1
EndSplineSet
EndChar

StartChar: parenright
Encoding: 41 41 6
Width: 333
Flags: HMW
HStem: -191 21G<41 41> 653 20G<41 41>
VStem: 196 82<161 330>
LayerCount: 2
Fore
SplineSet
41 -191 m 1
 31 -174 l 1
 153 -83 196 78 196 244 c 0
 196 416 162 571 31 656 c 1
 41 673 l 1
 149 648 278 498 278 241 c 0
 278 11 136 -169 41 -191 c 1
EndSplineSet
EndChar

StartChar: plus
Encoding: 43 43 7
Width: 549
Flags: HMW
HStem: 298 0<10 10 247 247 302 302 539 539>
VStem: 247 55<0 243 0 243 298 533>
LayerCount: 2
Fore
SplineSet
10 243 m 1
 10 298 l 1
 247 298 l 1
 247 533 l 1
 302 533 l 1
 302 298 l 1
 539 298 l 1
 539 243 l 1
 302 243 l 1
 302 0 l 1
 247 0 l 1
 247 243 l 1
 10 243 l 1
EndSplineSet
EndChar

StartChar: comma
Encoding: 44 44 8
Width: 250
Flags: HMW
HStem: -152 21G<64.5 70> -8 112<98 117> -1 105
VStem: 56 138<29 52.5 15 59>
LayerCount: 2
Fore
SplineSet
56 45 m 0
 56 73 76 104 120 104 c 0
 156 104 194 76 194 29 c 0
 194 1 192 -40 156 -86 c 0
 136 -111 103 -136 86 -146 c 0
 79 -151 72 -152 68 -152 c 0
 61 -152 56 -148 56 -141 c 0
 56 -134 64 -129 69 -125 c 0
 93 -107 151 -66 151 -11 c 0
 151 -4 149 -2 145 -1 c 0
 137 0 123 -8 111 -8 c 0
 75 -8 56 13 56 45 c 0
EndSplineSet
EndChar

StartChar: period
Encoding: 46 46 9
Width: 250
Flags: HMW
HStem: -17 112<109.5 140.5>
VStem: 69 112<23.5 54.5>
LayerCount: 2
Fore
SplineSet
69 39 m 0
 69 70 94 95 125 95 c 0
 156 95 181 70 181 39 c 0
 181 8 156 -17 125 -17 c 0
 94 -17 69 8 69 39 c 0
EndSplineSet
EndChar

StartChar: slash
Encoding: 47 47 10
Width: 278
Flags: HMW
HStem: -18 21G<0 0 0 44> 626 20G<210 254 254 254>
LayerCount: 2
Fore
SplineSet
0 -18 m 1
 210 646 l 1
 254 646 l 1
 44 -18 l 1
 0 -18 l 1
EndSplineSet
EndChar

StartChar: zero
Encoding: 48 48 11
Width: 500
Flags: HMW
HStem: -17 32<186 314 186 342> 655 30<186 314>
VStem: 23 99<292.5 371.5 292.5 396.5> 377 94<293.5 371.5>
LayerCount: 2
Fore
SplineSet
23 335 m 0
 23 458 66 685 250 685 c 0
 434 685 471 458 471 335 c 0
 471 210 434 -17 250 -17 c 0
 66 -17 23 210 23 335 c 0
122 335 m 0
 122 250 122 15 250 15 c 0
 378 15 377 252 377 335 c 0
 377 408 378 655 250 655 c 0
 122 655 122 408 122 335 c 0
EndSplineSet
EndChar

StartChar: one
Encoding: 49 49 12
Width: 500
Flags: HMW
HStem: 0 21G<117 117 117 390> 653 20G<279 297 297 297>
VStem: 213 84<100 564 564 574>
LayerCount: 2
Fore
SplineSet
117 0 m 1
 117 18 l 1
 130 18 213 29 213 100 c 2
 213 564 l 2
 213 584 202 597 174 587 c 2
 117 566 l 1
 117 584 l 1
 279 673 l 1
 297 673 l 1
 297 100 l 2
 297 29 377 18 390 18 c 1
 390 0 l 1
 117 0 l 1
EndSplineSet
EndChar

StartChar: two
Encoding: 50 50 13
Width: 500
Flags: HMW
HStem: 0 76<128 355 355 374.5 128 418> 468 18 606 80<199 252.5>
VStem: 332 90<443 491.5>
LayerCount: 2
Fore
SplineSet
25 0 m 1
 25 12 l 1
 217 222 l 2
 286 297 332 384 332 468 c 0
 332 515 310 606 195 606 c 0
 104 606 74 535 52 481 c 1
 31 486 l 1
 61 637 155 686 243 686 c 0
 348 686 422 617 422 496 c 0
 422 390 324 276 128 76 c 1
 355 76 l 2
 394 76 423 79 462 142 c 1
 475 137 l 1
 418 0 l 1
 25 0 l 1
EndSplineSet
EndChar

StartChar: three
Encoding: 51 51 14
Width: 500
Flags: HMW
HStem: -17 39<210.5 252> 625 60<207.5 245>
VStem: 315 82<523 546.5> 359 76<146.5 239.5>
LayerCount: 2
Fore
SplineSet
145 340 m 1
 145 345 145 350 145 355 c 1
 240 381 315 429 315 521 c 0
 315 572 282 625 208 625 c 0
 117 625 69 546 54 518 c 1
 39 522 l 1
 79 653 174 685 241 685 c 0
 370 685 397 591 397 550 c 0
 397 496 370 453 304 408 c 1
 350 392 435 350 435 220 c 0
 435 73 322 -17 182 -17 c 0
 163 -17 39 -12 39 39 c 0
 39 68 53 81 88 81 c 0
 111 81 131 68 152 51 c 0
 173 34 196 22 225 22 c 0
 318 22 359 101 359 185 c 0
 359 294 247 341 145 340 c 1
EndSplineSet
EndChar

StartChar: four
Encoding: 52 52 15
Width: 500
Flags: HMW
HStem: 0 21G<298 382 298 298> 159 70<16 298 61 298 61 298 382 469> 665 20G<332 382 382 382>
VStem: 16 45<229 229 229 230 229 230> 298 84<0 159 0 159 229 565 565 565>
LayerCount: 2
Fore
SplineSet
61 229 m 1
 298 229 l 1
 298 565 l 1
 61 229 l 1
16 159 m 1
 16 230 l 1
 332 685 l 1
 382 685 l 1
 382 229 l 1
 469 229 l 1
 469 159 l 1
 382 159 l 1
 382 0 l 1
 298 0 l 1
 298 159 l 1
 16 159 l 1
EndSplineSet
EndChar

StartChar: five
Encoding: 53 53 16
Width: 500
Flags: HMW
HStem: -17 40<203.5 248> 415 85<60 140> 594 79<176 350 350 369.5 170 405 176 176>
VStem: 355 71<158.5 280>
LayerCount: 2
Fore
SplineSet
60 415 m 1
 170 673 l 1
 350 673 l 2
 389 673 418 675 428 685 c 1
 443 680 l 1
 405 594 l 1
 176 594 l 1
 140 500 l 1
 335 490 426 378 426 225 c 0
 426 92 327 -17 169 -17 c 0
 119 -17 29 -6 29 46 c 0
 29 78 51 95 82 95 c 0
 112 95 132 77 151 59 c 0
 171 41 190 23 217 23 c 0
 282 23 355 78 355 200 c 0
 355 360 175 410 60 415 c 1
EndSplineSet
EndChar

StartChar: six
Encoding: 54 54 17
Width: 500
Flags: HMW
HStem: -14 28<231.5 300.5 231.5 343> 382 46<257.5 296.5> 665 20G<445 445>
VStem: 34 93<186 273 172 392.5> 378 90<181.5 230.5>
LayerCount: 2
Fore
SplineSet
136 340 m 1
 128 316 127 290 127 256 c 0
 127 88 194 14 269 14 c 0
 332 14 378 66 378 179 c 0
 378 282 348 382 245 382 c 0
 208 382 172 374 136 340 c 1
445 685 m 1
 450 668 l 1
 270 640 171 505 150 385 c 1
 207 416 230 428 285 428 c 0
 390 428 468 352 468 218 c 0
 468 145 432 -14 254 -14 c 0
 136 -14 34 81 34 291 c 0
 34 494 204 676 445 685 c 1
EndSplineSet
EndChar

StartChar: seven
Encoding: 55 55 18
Width: 500
Flags: HMW
HStem: -14 21G 583 90<125 153 153 370>
LayerCount: 2
Fore
SplineSet
175 -16 m 1
 370 583 l 1
 153 583 l 2
 97 583 70 544 46 504 c 1
 24 513 l 1
 85 673 l 1
 448 673 l 1
 448 641 l 1
 235 -16 l 1
 175 -16 l 1
EndSplineSet
EndChar

StartChar: eight
Encoding: 56 56 19
Width: 500
Flags: HMW
HStem: -18 32<215.5 287.5 215.5 329> 648 37<205.5 281.5>
VStem: 54 78<117.5 189.5> 62 70 354 65<497 566.5> 365 75<124 163>
LayerCount: 2
Fore
SplineSet
262 390 m 1
 301 414 354 451 354 539 c 0
 354 594 320 648 243 648 c 0
 168 648 136 595 136 547 c 0
 136 469 227 412 262 390 c 1
179 340 m 1
 94 415 62 449 62 530 c 0
 62 631 157 685 243 685 c 0
 356 685 419 619 419 543 c 0
 419 451 349 402 295 364 c 1
 425 278 440 217 440 150 c 0
 440 98 412 -18 246 -18 c 0
 122 -18 54 68 54 146 c 0
 54 233 92 275 179 340 c 1
207 313 m 1
 172 286 132 247 132 156 c 0
 132 79 175 14 256 14 c 0
 319 14 365 56 365 126 c 0
 365 200 319 230 207 313 c 1
EndSplineSet
EndChar

StartChar: nine
Encoding: 57 57 20
Width: 500
Flags: HMW
HStem: -18 21G<60 60> 231 43<197 235> 652 33<187 294.5>
VStem: 31 91<439 505.5> 362 98<389.5 432.5>
LayerCount: 2
Fore
SplineSet
358 326 m 1
 360 345 362 379 362 400 c 0
 362 465 360 652 229 652 c 0
 145 652 122 559 122 477 c 0
 122 401 144 274 250 274 c 0
 283 274 325 292 358 326 c 1
55 2 m 1
 298 42 353 259 357 286 c 1
 313 249 260 231 210 231 c 0
 76 231 31 357 31 439 c 0
 31 572 110 685 240 685 c 0
 363 685 460 567 460 400 c 0
 460 175 310 -5 60 -18 c 1
 55 2 l 1
EndSplineSet
EndChar

StartChar: colon
Encoding: 58 58 21
Width: 278
Flags: HMW
HStem: -17 112<121.5 152.5> 348 112<121.5 152.5>
VStem: 81 112<23.5 54.5 388.5 419.5>
LayerCount: 2
Fore
SplineSet
81 404 m 0
 81 435 106 460 137 460 c 0
 168 460 193 435 193 404 c 0
 193 373 168 348 137 348 c 0
 106 348 81 373 81 404 c 0
81 39 m 0
 81 70 106 95 137 95 c 0
 168 95 193 70 193 39 c 0
 193 8 168 -17 137 -17 c 0
 106 -17 81 8 81 39 c 0
EndSplineSet
EndChar

StartChar: semicolon
Encoding: 59 59 22
Width: 278
Flags: HMW
HStem: -152 21G<88 92.5> -6 21G<117.5 138.5> 0 21G<166 171> 348 112<132.5 163.5>
VStem: 83 138<29.5 44.5 9 60> 92 112<388.5 419.5>
LayerCount: 2
Fore
SplineSet
92 404 m 0
 92 435 117 460 148 460 c 0
 179 460 204 435 204 404 c 0
 204 373 179 348 148 348 c 0
 117 348 92 373 92 404 c 0
83 42 m 0
 83 78 109 100 142 100 c 0
 188 100 221 64 221 25 c 0
 221 -7 212 -51 183 -86 c 0
 157 -117 113 -149 103 -151 c 0
 98 -152 94 -152 91 -152 c 0
 85 -152 83 -149 83 -144 c 0
 83 -133 89 -130 102 -121 c 0
 114 -113 131 -101 146 -86 c 0
 162 -69 178 -43 178 -15 c 0
 178 -4 174 0 168 0 c 0
 164 0 158 -1 152 -3 c 0
 147 -5 141 -6 136 -6 c 0
 99 -6 83 17 83 42 c 0
EndSplineSet
EndChar

StartChar: less
Encoding: 60 60 23
Width: 549
Flags: HMW
HStem: 0 21G<523 523> 502 20G<523 523>
LayerCount: 2
Fore
SplineSet
26 230 m 1
 26 292 l 1
 523 522 l 1
 523 460 l 1
 90 261 l 1
 523 62 l 1
 523 0 l 1
 26 230 l 1
EndSplineSet
EndChar

StartChar: equal
Encoding: 61 61 24
Width: 549
Flags: HMW
HStem: 141 55<11 537 11 537> 335 55<11 537 11 537>
LayerCount: 2
Fore
SplineSet
11 141 m 1
 11 196 l 1
 537 196 l 1
 537 141 l 1
 11 141 l 1
11 335 m 1
 11 390 l 1
 537 390 l 1
 537 335 l 1
 11 335 l 1
EndSplineSet
EndChar

StartChar: greater
Encoding: 62 62 25
Width: 549
Flags: HMW
HStem: 0 21G<26 26> 502 20G<26 26>
LayerCount: 2
Fore
SplineSet
523 230 m 1
 26 0 l 1
 26 62 l 1
 458 261 l 1
 26 460 l 1
 26 522 l 1
 523 292 l 1
 523 230 l 1
EndSplineSet
EndChar

StartChar: question
Encoding: 63 63 26
Width: 444
Flags: HMW
HStem: -17 112<214.5 245.5> 654 32<189.5 242>
VStem: 174 112<23.5 54.5> 313 96<495 554 491.5 564>
LayerCount: 2
Fore
SplineSet
174 39 m 0
 174 70 199 95 230 95 c 0
 261 95 286 70 286 39 c 0
 286 8 261 -17 230 -17 c 0
 199 -17 174 8 174 39 c 0
224 167 m 1
 230 229 250 296 270 352 c 0
 292 410 313 463 313 527 c 0
 313 601 269 654 215 654 c 0
 164 654 118 634 118 595 c 0
 118 576 127 562 136 549 c 0
 146 534 157 520 157 501 c 0
 157 475 141 463 119 463 c 0
 90 463 70 498 70 532 c 0
 70 597 118 686 231 686 c 0
 389 686 409 579 409 529 c 0
 409 454 350 379 330 355 c 0
 296 315 258 259 245 167 c 1
 224 167 l 1
EndSplineSet
EndChar

StartChar: bracketleft
Encoding: 91 91 27
Width: 333
Flags: HMW
HStem: -155 25<220 299 220 299> 649 25<200.5 220 220 299>
VStem: 86 77<-87.5 -69 -69 588>
LayerCount: 2
Fore
SplineSet
86 -155 m 1
 86 674 l 1
 299 674 l 1
 299 649 l 1
 220 649 l 2
 181 649 163 625 163 588 c 2
 163 -69 l 2
 163 -106 181 -130 220 -130 c 2
 299 -130 l 1
 299 -155 l 1
 86 -155 l 1
EndSplineSet
EndChar

StartChar: bracketright
Encoding: 93 93 28
Width: 333
Flags: HMW
HStem: -155 25<33 112 112 131.5 33 246 33 112> 649 25<33 112 33 246>
VStem: 169 77<-69 588 588 606.5>
LayerCount: 2
Fore
SplineSet
33 -130 m 1
 112 -130 l 2
 151 -130 169 -106 169 -69 c 2
 169 588 l 2
 169 625 151 649 112 649 c 2
 33 649 l 1
 33 674 l 1
 246 674 l 1
 246 -155 l 1
 33 -155 l 1
 33 -130 l 1
EndSplineSet
EndChar

StartChar: underscore
Encoding: 95 95 29
Width: 500
Flags: HMW
HStem: -252 46<-2 502 -2 502>
LayerCount: 2
Fore
SplineSet
-2 -206 m 1
 502 -206 l 1
 502 -252 l 1
 -2 -252 l 1
 -2 -206 l 1
EndSplineSet
EndChar

StartChar: braceleft
Encoding: 123 123 30
Width: 480
Flags: HMW
HStem: -183 25<348 397 348 397> 648 25<319.5 348 348 397>
VStem: 186 75<-71 120 370 561>
LayerCount: 2
Fore
SplineSet
58 232 m 1
 58 258 l 1
 115 270 186 270 186 370 c 2
 186 561 l 2
 186 647 220 673 296 673 c 2
 397 673 l 1
 397 648 l 1
 348 648 l 2
 291 648 261 619 261 561 c 2
 261 370 l 2
 261 288 159 252 114 244 c 1
 162 241 261 200 261 120 c 2
 261 -71 l 2
 261 -127 291 -158 348 -158 c 2
 397 -158 l 1
 397 -183 l 1
 296 -183 l 2
 219 -183 186 -153 186 -71 c 2
 186 120 l 2
 186 220 115 220 58 232 c 1
EndSplineSet
EndChar

StartChar: bar
Encoding: 124 124 31
Width: 200
Flags: HMW
HStem: -177 21G<65 65 65 135> 653 20G<65 135 135 135>
VStem: 65 70<-177 673 -177 673>
LayerCount: 2
Fore
SplineSet
65 -177 m 1
 65 673 l 1
 135 673 l 1
 135 -177 l 1
 65 -177 l 1
EndSplineSet
EndChar

StartChar: braceright
Encoding: 125 125 32
Width: 480
Flags: HMW
HStem: -183 25<79 128 128 153 79 128> 648 25<79 128 79 180>
VStem: 215 75<-71 120 370 561>
LayerCount: 2
Fore
SplineSet
79 -158 m 1
 128 -158 l 2
 178 -158 215 -135 215 -71 c 2
 215 120 l 2
 215 200 317 240 362 242 c 1
 319 250 215 288 215 370 c 2
 215 561 l 2
 215 625 178 648 128 648 c 2
 79 648 l 1
 79 673 l 1
 180 673 l 2
 258 673 290 643 290 561 c 2
 290 370 l 2
 290 270 361 270 418 258 c 1
 418 232 l 1
 361 220 290 220 290 120 c 2
 290 -71 l 2
 290 -155 257 -183 180 -183 c 2
 79 -183 l 1
 79 -158 l 1
EndSplineSet
EndChar

StartChar: logicalnot
Encoding: 256 172 33
Width: 713
Flags: HMW
HStem: 233 55<35 605 605 605>
VStem: 605 55<0 233 0 288>
LayerCount: 2
Fore
SplineSet
35 288 m 1
 35 233 l 1
 605 233 l 1
 605 0 l 1
 660 0 l 1
 660 288 l 1
 35 288 l 1
EndSplineSet
EndChar

StartChar: degree
Encoding: 257 176 34
Width: 400
Flags: HMW
HStem: 385 41<169.5 230 169.5 241> 644 41<169 229.5>
VStem: 50 43<504.5 565 504.5 577> 308 42<504.5 565>
LayerCount: 2
Fore
SplineSet
93 535 m 0
 93 474 139 426 200 426 c 0
 260 426 308 474 308 535 c 0
 308 595 260 644 199 644 c 0
 139 644 93 595 93 535 c 0
50 535 m 0
 50 619 117 685 200 685 c 0
 282 685 350 617 350 535 c 0
 350 452 282 385 200 385 c 0
 117 385 50 452 50 535 c 0
EndSplineSet
EndChar

StartChar: plusminus
Encoding: 258 177 35
Width: 549
Flags: HMW
HStem: 0 55<10 539 10 539> 353 55<10 247 10 247 302 539> 625 20G<247 302 302 302>
VStem: 247 55<115 353 115 353 408 645>
LayerCount: 2
Fore
SplineSet
10 0 m 1
 10 55 l 1
 539 55 l 1
 539 0 l 1
 10 0 l 1
10 353 m 1
 10 408 l 1
 247 408 l 1
 247 645 l 1
 302 645 l 1
 302 408 l 1
 539 408 l 1
 539 353 l 1
 302 353 l 1
 302 115 l 1
 247 115 l 1
 247 353 l 1
 10 353 l 1
EndSplineSet
EndChar

StartChar: mu
Encoding: 259 181 36
Width: 576
Flags: HMW
HStem: -223 21G<66.5 94.5> -18 50<473 504> -18 71<205.5 236.5> 480 20G<61 147 147 147 354 440 440 440>
VStem: 61 86<136 167 167 500> 354 86<138 500>
LayerCount: 2
Fore
SplineSet
97 31 m 1
 97 8 l 2
 98 -16 101 -36 105 -52 c 0
 114 -88 127 -110 127 -147 c 0
 127 -184 108 -223 81 -223 c 0
 52 -223 33 -185 33 -148 c 0
 33 -108 46 -83 54 -51 c 0
 58 -35 61 -16 61 8 c 2
 61 500 l 1
 147 500 l 1
 147 167 l 2
 147 105 173 53 238 53 c 0
 285 53 326 92 354 138 c 1
 354 500 l 1
 440 500 l 1
 440 116 l 2
 440 82 456 32 490 32 c 0
 526 32 537 76 547 101 c 1
 567 101 l 1
 567 41 539 -18 469 -18 c 0
 401 -18 356 34 355 91 c 1
 340 53 268 -18 205 -18 c 0
 164 -18 114 0 97 31 c 1
EndSplineSet
EndChar

StartChar: multiply
Encoding: 260 215 37
Width: 549
Flags: HMW
HStem: 8 21G<53 53 497 497> 504 20G<53 53 498 498>
LayerCount: 2
Fore
SplineSet
17 45 m 1
 237 266 l 1
 17 487 l 1
 53 524 l 1
 275 302 l 1
 498 524 l 1
 533 487 l 1
 313 266 l 1
 533 45 l 1
 497 8 l 1
 275 230 l 1
 53 8 l 1
 17 45 l 1
EndSplineSet
EndChar

StartChar: divide
Encoding: 261 247 38
Width: 549
Flags: HMW
HStem: 71 112<252.5 283.5> 236 55<10 536 10 536> 344 112<252.5 283.5>
VStem: 212 112<111.5 142.5 384.5 415.5>
CounterMasks: 1 e0
LayerCount: 2
Fore
SplineSet
212 127 m 0
 212 158 237 183 268 183 c 0
 299 183 324 158 324 127 c 0
 324 96 299 71 268 71 c 0
 237 71 212 96 212 127 c 0
212 400 m 0
 212 431 237 456 268 456 c 0
 299 456 324 431 324 400 c 0
 324 369 299 344 268 344 c 0
 237 344 212 369 212 400 c 0
10 236 m 1
 10 291 l 1
 536 291 l 1
 536 236 l 1
 10 236 l 1
EndSplineSet
EndChar

StartChar: florin
Encoding: 166 402 39
Width: 500
Flags: HMW
HStem: 374 33<101 226 114 218 306 424> 660 26<369.5 403>
VStem: 2 84<-126.5 -102> 414 80<604.5 620>
LayerCount: 2
Fore
SplineSet
101 374 m 1
 114 407 l 1
 226 407 l 1
 242 530 280 686 426 686 c 0
 458 686 494 658 494 618 c 0
 494 589 482 570 456 570 c 0
 431 570 414 594 414 615 c 0
 414 625 420 641 420 648 c 0
 420 656 411 660 395 660 c 0
 344 660 327 576 306 407 c 1
 434 407 l 1
 424 374 l 1
 302 374 l 1
 279 241 262 111 234 -25 c 0
 217 -101 180 -192 87 -193 c 0
 45 -193 2 -170 2 -121 c 0
 2 -83 27 -69 48 -69 c 0
 67 -69 86 -88 86 -108 c 0
 86 -145 74 -145 74 -160 c 0
 74 -165 85 -167 94 -167 c 0
 150 -167 171 -54 175 -21 c 0
 182 35 188 95 218 374 c 1
 101 374 l 1
EndSplineSet
EndChar

StartChar: Alpha
Encoding: 262 913 40
Width: 722
Flags: HMW
HStem: 0 21G<4 4 4 196 434 434 434 684> 218 42<204 430 204 444 185 430> 653 20G<330 356 356 356>
VStem: 4 127<0 69.5 18 69.5> 499 185<0 69.5>
LayerCount: 2
Fore
SplineSet
204 260 m 1
 430 260 l 1
 317 528 l 1
 204 260 l 1
4 0 m 1
 4 18 l 1
 47 18 65 56 81 92 c 2
 330 673 l 1
 356 673 l 1
 607 92 l 2
 624 54 638 18 684 18 c 1
 684 0 l 1
 434 0 l 1
 434 18 l 1
 449 18 499 23 499 65 c 0
 499 74 497 84 493 96 c 2
 444 218 l 1
 185 218 l 1
 137 96 l 2
 133 84 131 74 131 65 c 0
 131 23 181 18 196 18 c 1
 196 0 l 1
 4 0 l 1
EndSplineSet
EndChar

StartChar: Beta
Encoding: 263 914 41
Width: 667
Flags: HMW
HStem: 0 42<266 354 354 368> 328 42<223 302 223 302 302 306> 630 43<300 306 306 355.5>
VStem: 119 104<92 98 98 328 370 581 581 608.5> 460 103<464 526.5> 478 114<135.5 221.5 129 234.5>
LayerCount: 2
Fore
SplineSet
223 328 m 1
 223 98 l 2
 223 74 224 42 266 42 c 2
 354 42 l 2
 418 42 478 95 478 176 c 0
 478 293 408 328 306 328 c 2
 223 328 l 1
223 370 m 1
 302 370 l 2
 342 370 460 375 460 496 c 0
 460 557 426 630 306 630 c 0
 294 630 223 635 223 621 c 2
 223 370 l 1
29 0 m 1
 29 18 l 1
 84 18 119 37 119 92 c 2
 119 581 l 2
 119 636 84 655 29 655 c 1
 29 673 l 1
 306 673 l 2
 405 673 563 658 563 500 c 0
 563 428 524 380 436 354 c 1
 436 352 l 1
 546 328 592 259 592 184 c 0
 592 74 492 0 368 0 c 2
 29 0 l 1
EndSplineSet
EndChar

StartChar: Gamma
Encoding: 264 915 42
Width: 603
Flags: HMW
HStem: 0 21G<24 24 24 319> 628 45<229 421 229 229> 653 20<24 592>
VStem: 125 104<92 543 543 595> 584 25<511 511>
LayerCount: 2
Fore
SplineSet
24 0 m 1
 24 18 l 1
 79 18 125 37 125 92 c 2
 125 543 l 2
 125 647 44 652 24 653 c 1
 24 673 l 1
 592 673 l 1
 609 511 l 1
 584 511 l 1
 581 595 516 628 421 628 c 2
 229 628 l 1
 229 92 l 2
 229 37 264 18 319 18 c 1
 319 0 l 1
 24 0 l 1
EndSplineSet
EndChar

StartChar: Epsilon
Encoding: 265 917 43
Width: 611
Flags: HMW
HStem: 0 46<266 425 425 478> 333 42<226 382 226 382> 625 48<226 441 226 226> 655 18<32 59.5>
VStem: 122 104<92 95 95 333 375 581 581 608.5> 484 23<239 269 439 469> 536 27<525 673>
LayerCount: 2
Fore
SplineSet
32 0 m 1
 32 18 l 1
 87 18 122 37 122 92 c 2
 122 581 l 2
 122 636 87 655 32 655 c 1
 32 673 l 1
 563 673 l 1
 563 525 l 1
 536 525 l 1
 523 571 527 625 441 625 c 2
 226 625 l 1
 226 375 l 1
 382 375 l 2
 462 375 484 409 484 469 c 1
 507 469 l 1
 507 239 l 1
 484 239 l 1
 484 299 462 333 382 333 c 2
 226 333 l 1
 226 95 l 2
 226 60 245 46 266 46 c 2
 425 46 l 2
 531 46 556 119 580 170 c 1
 611 170 l 1
 565 0 l 1
 32 0 l 1
EndSplineSet
EndChar

StartChar: Zeta
Encoding: 266 918 44
Width: 611
Flags: HMW
HStem: 0 42<192 435 435 504.5> 631 42<191 254 254 473>
VStem: 44 592<0 181 19 181>
LayerCount: 2
Fore
SplineSet
44 0 m 1
 44 19 l 1
 473 631 l 1
 254 631 l 2
 128 631 113 568 93 498 c 1
 68 498 l 1
 83 673 l 1
 605 673 l 1
 605 646 l 1
 192 42 l 1
 435 42 l 2
 574 42 593 134 607 181 c 1
 636 181 l 1
 611 0 l 1
 44 0 l 1
EndSplineSet
EndChar

StartChar: Eta
Encoding: 267 919 45
Width: 722
Flags: HMW
HStem: 0 21G<39 39 39 323 445 445 445 729> 323 42<233 535 233 535> 653 20G<39 323 323 323 445 729 729 729>
VStem: 129 104<92 323 365 581> 535 104<92 323 323 323 365 581>
LayerCount: 2
Fore
SplineSet
39 0 m 1
 39 18 l 1
 94 18 129 37 129 92 c 2
 129 581 l 2
 129 636 94 655 39 655 c 1
 39 673 l 1
 323 673 l 1
 323 655 l 1
 268 655 233 636 233 581 c 2
 233 365 l 1
 535 365 l 1
 535 581 l 2
 535 636 500 655 445 655 c 1
 445 673 l 1
 729 673 l 1
 729 655 l 1
 674 655 639 636 639 581 c 2
 639 92 l 2
 639 37 674 18 729 18 c 1
 729 0 l 1
 445 0 l 1
 445 18 l 1
 500 18 535 37 535 92 c 2
 535 323 l 1
 233 323 l 1
 233 92 l 2
 233 37 268 18 323 18 c 1
 323 0 l 1
 39 0 l 1
EndSplineSet
EndChar

StartChar: Theta
Encoding: 268 920 46
Width: 741
Flags: HMW
HStem: -17 39<291.5 458 291.5 479.5> 304 67<296.5 441 315 441> 644 39<290 462.5>
VStem: 41 114<271 409 271 423> 599 116<271 409>
LayerCount: 2
Fore
SplineSet
233 252 m 1
 237 285 239 313 239 338 c 0
 239 363 237 391 233 423 c 1
 248 424 l 1
 259 391 278 371 315 371 c 2
 441 371 l 2
 478 371 497 391 508 424 c 1
 523 423 l 1
 519 391 517 363 517 338 c 0
 517 313 519 285 523 252 c 1
 508 251 l 1
 497 285 478 304 441 304 c 2
 315 304 l 2
 278 304 259 285 248 251 c 1
 233 252 l 1
155 338 m 0
 155 204 207 22 376 22 c 0
 540 22 599 204 599 338 c 0
 599 480 549 644 376 644 c 0
 204 644 155 480 155 338 c 0
41 338 m 0
 41 508 172 683 376 683 c 0
 580 683 715 508 715 338 c 0
 715 164 583 -17 376 -17 c 0
 169 -17 41 164 41 338 c 0
EndSplineSet
EndChar

StartChar: Iota
Encoding: 269 921 47
Width: 333
Flags: HMW
HStem: 0 21G<32 32 32 316> 653 20G<32 316 316 316>
VStem: 122 104<92 581>
LayerCount: 2
Fore
SplineSet
32 0 m 1
 32 18 l 1
 87 18 122 37 122 92 c 2
 122 581 l 2
 122 636 87 655 32 655 c 1
 32 673 l 1
 316 673 l 1
 316 655 l 1
 261 655 226 636 226 581 c 2
 226 92 l 2
 226 37 261 18 316 18 c 1
 316 0 l 1
 32 0 l 1
EndSplineSet
EndChar

StartChar: Kappa
Encoding: 270 922 48
Width: 722
Flags: HMW
HStem: 0 21G<35 35 35 319 418 418 418 722> 653 20G<35 319 319 319 405 665 665 665>
VStem: 125 104<92 297 360 581> 491 174<616.5 673>
LayerCount: 2
Fore
SplineSet
35 0 m 1
 35 18 l 1
 90 18 125 37 125 92 c 2
 125 581 l 2
 125 636 90 655 35 655 c 1
 35 673 l 1
 319 673 l 1
 319 655 l 1
 264 655 229 636 229 581 c 2
 229 360 l 1
 312 428 390 500 466 578 c 0
 484 596 491 611 491 622 c 0
 491 645 455 655 405 655 c 1
 405 673 l 1
 665 673 l 1
 665 655 l 1
 620 655 585 636 526 578 c 0
 460 509 410 461 336 392 c 1
 593 102 l 2
 665 21 689 24 722 18 c 1
 722 0 l 1
 418 0 l 1
 418 18 l 1
 470 18 495 27 495 47 c 0
 495 58 487 72 472 90 c 2
 262 327 l 1
 229 297 l 1
 229 92 l 2
 229 37 264 18 319 18 c 1
 319 0 l 1
 35 0 l 1
EndSplineSet
EndChar

StartChar: Lambda
Encoding: 271 923 49
Width: 686
Flags: HMW
HStem: 0 18<6 15 6 15 206 221 408 416.5 674.5 680> 658 20G<332 340 340 340>
VStem: 6 148<0 71 18 71> 483 197<0 67>
LayerCount: 2
Fore
SplineSet
6 0 m 1
 6 18 l 1
 24 18 93 54 116 111 c 2
 332 678 l 1
 340 678 l 1
 583 109 l 2
 613 40 669 18 680 18 c 1
 680 0 l 1
 408 0 l 1
 408 18 l 1
 425 18 483 18 483 62 c 0
 483 72 478 94 472 109 c 2
 310 496 l 1
 164 111 l 2
 157 92 154 77 154 65 c 0
 154 24 191 18 221 18 c 1
 221 0 l 1
 6 0 l 1
EndSplineSet
EndChar

StartChar: Mu
Encoding: 272 924 50
Width: 889
Flags: HMW
HStem: 0 21G<28 28 28 260 430 430 430 448 603 603 603 887> 653 20G<28 229 229 229 687 887 887 887>
VStem: 121 49<92 543> 693 104<92 572 572 572>
LayerCount: 2
Fore
SplineSet
28 0 m 1
 28 18 l 1
 79 18 121 45 121 92 c 2
 121 545 l 2
 121 611 107 649 28 655 c 1
 28 673 l 1
 229 673 l 1
 463 163 l 1
 687 673 l 1
 887 673 l 1
 887 655 l 1
 858 655 797 645 797 574 c 2
 797 92 l 2
 797 27 832 18 887 18 c 1
 887 0 l 1
 603 0 l 1
 603 18 l 1
 658 18 693 37 693 92 c 2
 693 572 l 1
 448 0 l 1
 430 0 l 1
 170 543 l 1
 170 92 l 2
 170 45 209 18 260 18 c 1
 260 0 l 1
 28 0 l 1
EndSplineSet
EndChar

StartChar: Nu
Encoding: 273 925 51
Width: 722
Flags: HMW
HStem: -8 21G<29 29 29 258 608 608 608 630> 653 20G<29 198 198 198 491 720 720 720>
VStem: 119 49<84 539> 581 49<185 581 -8 608.5>
LayerCount: 2
Fore
SplineSet
29 -8 m 1
 29 10 l 1
 80 10 119 37 119 84 c 2
 119 603 l 1
 89 637 80 655 29 655 c 1
 29 673 l 1
 198 673 l 1
 581 185 l 1
 581 581 l 2
 581 636 546 655 491 655 c 1
 491 673 l 1
 720 673 l 1
 720 655 l 1
 665 655 630 636 630 581 c 2
 630 -8 l 1
 608 -8 l 1
 168 539 l 1
 168 84 l 2
 168 37 207 10 258 10 c 1
 258 -8 l 1
 29 -8 l 1
EndSplineSet
EndChar

StartChar: Xi
Encoding: 274 926 52
Width: 645
Flags: HMW
HStem: 0 93<155 484 484 520 155 599> 306 95<209.5 412 227 412> 583 90<114 147 147 491>
VStem: 36 18<0 194 194 194> 147 18<250 457> 474 18<250 457 250 457> 581 18<0 194>
LayerCount: 2
Fore
SplineSet
36 0 m 1
 36 194 l 1
 54 194 l 1
 63 126 83 93 155 93 c 2
 484 93 l 2
 556 93 572 126 581 194 c 1
 599 194 l 1
 599 0 l 1
 36 0 l 1
147 250 m 1
 147 457 l 1
 165 457 l 1
 168 409 192 401 227 401 c 2
 412 401 l 2
 447 401 471 409 474 457 c 1
 492 457 l 1
 492 250 l 1
 474 250 l 1
 471 298 447 306 412 306 c 2
 227 306 l 2
 192 306 168 298 165 250 c 1
 147 250 l 1
60 522 m 1
 60 673 l 1
 579 673 l 1
 579 522 l 1
 563 522 l 1
 560 540 557 583 491 583 c 2
 147 583 l 2
 81 583 79 540 76 522 c 1
 60 522 l 1
EndSplineSet
EndChar

StartChar: Omicron
Encoding: 275 927 53
Width: 722
Flags: HMW
HStem: -17 39<294 461 294 481.5> 646 39<297 461.5>
VStem: 41 116<269 403.5 269 421> 600 115<267.5 405>
LayerCount: 2
Fore
SplineSet
157 336 m 0
 157 202 210 22 378 22 c 0
 544 22 600 200 600 335 c 0
 600 475 545 646 378 646 c 0
 216 646 157 471 157 336 c 0
41 336 m 0
 41 506 174 685 378 685 c 0
 582 685 715 506 715 336 c 0
 715 162 585 -17 378 -17 c 0
 171 -17 41 162 41 336 c 0
EndSplineSet
EndChar

StartChar: Pi
Encoding: 276 928 54
Width: 768
Flags: HMW
HStem: 0 21G<25 25 25 309 461 461 461 745> 632 41<218 551 218 218> 655 18<25 38 732 745>
VStem: 115 103<92 632 567 632> 551 103<567 603.5 567 632 567 632>
LayerCount: 2
Fore
SplineSet
25 0 m 1
 25 18 l 1
 80 18 115 37 115 92 c 2
 115 567 l 2
 115 640 51 655 25 655 c 1
 25 673 l 1
 745 673 l 1
 745 655 l 1
 719 655 654 640 654 567 c 2
 655 92 l 2
 655 37 690 18 745 18 c 1
 745 0 l 1
 461 0 l 1
 461 18 l 1
 516 18 551 37 551 92 c 2
 551 632 l 1
 218 632 l 1
 219 92 l 2
 219 37 254 18 309 18 c 1
 309 0 l 1
 25 0 l 1
EndSplineSet
EndChar

StartChar: Rho
Encoding: 277 929 55
Width: 556
Flags: HMW
HStem: 0 21G<28 28 28 312> 300 41<222 327.5> 633 40<248.5 257> 655 18<28 55.5>
VStem: 118 104<92 300 353 581 581 608.5> 436 107<434.5 552.5 434.5 555>
LayerCount: 2
Fore
SplineSet
222 353 m 1
 229 348 239 341 251 341 c 0
 404 341 436 370 436 496 c 0
 436 614 374 634 257 633 c 0
 240 633 222 628 222 609 c 2
 222 353 l 1
28 0 m 1
 28 18 l 1
 83 18 118 37 118 92 c 2
 118 581 l 2
 118 636 83 655 28 655 c 1
 28 673 l 1
 305 673 l 2
 510 673 543 609 543 496 c 0
 543 373 520 299 222 300 c 1
 222 92 l 2
 222 37 257 18 312 18 c 1
 312 0 l 1
 28 0 l 1
EndSplineSet
EndChar

StartChar: Sigma
Encoding: 278 931 56
Width: 592
Flags: HMW
HStem: 0 94<145 428 428 460 145 552> 627 46<180 390 180 180>
LayerCount: 2
Fore
SplineSet
5 0 m 1
 286 327 l 1
 17 673 l 1
 535 673 l 1
 545 522 l 1
 526 522 l 1
 516 560 489 627 390 627 c 2
 180 627 l 1
 381 369 l 1
 145 94 l 1
 428 94 l 2
 492 94 539 108 569 205 c 1
 589 205 l 1
 552 0 l 1
 5 0 l 1
EndSplineSet
EndChar

StartChar: Tau
Encoding: 279 932 57
Width: 611
Flags: HMW
HStem: 0 21G<178 178 178 462> 634 39<268 268 372 372>
VStem: 35 24 268 104<92 634> 581 23
LayerCount: 2
Fore
SplineSet
178 0 m 1
 178 18 l 1
 233 18 268 37 268 92 c 2
 268 634 l 1
 140 635 60 607 59 500 c 1
 33 502 l 1
 38 673 l 1
 602 673 l 1
 607 502 l 1
 581 500 l 1
 582 607 492 635 372 634 c 1
 372 92 l 2
 372 37 407 18 462 18 c 1
 462 0 l 1
 178 0 l 1
EndSplineSet
EndChar

StartChar: Upsilon
Encoding: 280 933 58
Width: 690
Flags: HMW
HStem: 0 21G<204 204 204 488> 653 20G<-8 289 289 289 462 694 694 694>
VStem: 294 104<92 296>
LayerCount: 2
Fore
SplineSet
204 0 m 1
 204 18 l 1
 259 18 294 37 294 92 c 2
 294 300 l 1
 90 600 l 2
 78 616 45 655 -8 655 c 1
 -8 673 l 1
 289 673 l 1
 289 655 l 1
 237 655 211 646 211 628 c 0
 211 621 214 612 220 602 c 2
 376 363 l 1
 516 594 l 2
 523 605 530 618 530 628 c 0
 530 643 514 655 462 655 c 1
 462 673 l 1
 694 673 l 1
 694 655 l 1
 659 655 622 657 583 594 c 2
 398 296 l 1
 398 92 l 2
 398 37 433 18 488 18 c 1
 488 0 l 1
 204 0 l 1
EndSplineSet
EndChar

StartChar: Phi
Encoding: 281 934 59
Width: 763
Flags: HMW
HStem: 0 18<232 276.5 232 276.5 493.5 538> 105 35<334 334 436 436> 537 31<252.5 334 436 492> 655 18<233 277.5 492.5 537>
VStem: 26 121<291.5 385.5 291.5 403.5> 334 102<82 105 140 537 568 591> 623 118<292 389>
LayerCount: 2
Fore
SplineSet
334 140 m 1
 334 537 l 1
 214 536 147 440 147 331 c 0
 147 252 198 140 334 140 c 1
436 140 m 1
 574 140 623 253 623 331 c 0
 623 447 548 537 436 537 c 1
 436 140 l 1
232 0 m 1
 232 18 l 1
 321 18 334 59 334 105 c 1
 187 104 26 176 26 331 c 0
 26 476 171 568 334 568 c 1
 334 614 322 655 233 655 c 1
 233 673 l 1
 537 673 l 1
 537 655 l 1
 448 655 436 614 436 568 c 1
 590 568 741 474 741 331 c 0
 741 178 577 104 436 105 c 1
 436 59 449 18 538 18 c 1
 538 0 l 1
 232 0 l 1
EndSplineSet
EndChar

StartChar: Chi
Encoding: 282 935 60
Width: 722
Flags: HMW
HStem: 0 21G<-9 -9 -9 221 404 404 404 704> 653 20G<15 315 315 315 455 687 687 687>
VStem: -9 164<0 64 18 64> -9 713<0 18 0 18> 526 161<618 673>
LayerCount: 2
Fore
SplineSet
-9 0 m 1
 -9 18 l 1
 15 18 73 52 104 89 c 2
 305 333 l 1
 116 591 l 2
 104 607 60 655 15 655 c 1
 15 673 l 1
 315 673 l 1
 315 655 l 1
 262 655 237 642 237 622 c 0
 237 613 239 603 246 592 c 2
 369 413 l 1
 509 584 l 2
 518 596 526 611 526 625 c 0
 526 642 508 655 455 655 c 1
 455 673 l 1
 687 673 l 1
 687 655 l 1
 660 655 600 619 570 584 c 2
 396 375 l 1
 607 80 l 2
 619 64 663 18 704 18 c 1
 704 0 l 1
 404 0 l 1
 404 18 l 1
 457 18 482 33 482 54 c 0
 482 62 479 71 473 81 c 2
 332 292 l 1
 167 89 l 2
 160 80 155 69 155 59 c 0
 155 38 171 18 221 18 c 1
 221 0 l 1
 -9 0 l 1
EndSplineSet
EndChar

StartChar: Psi
Encoding: 283 936 61
Width: 795
Flags: HMW
HStem: 0 21G<256 256 256 540> 290 40<278 346> 655 18<256 283.5 512.5 540> 664 20G<15 85 714.5 781>
VStem: 71 115<405 521> 346 104<92 290 330 581> 610 115<405 520.5 394 535.5>
CounterMasks: 1 0e
LayerCount: 2
Fore
SplineSet
256 0 m 1
 256 18 l 1
 311 18 346 37 346 92 c 2
 346 290 l 1
 210 290 71 323 71 464 c 0
 71 578 86 666 15 666 c 1
 15 684 l 1
 155 684 186 606 186 468 c 0
 186 342 284 331 346 330 c 1
 346 581 l 2
 346 636 311 655 256 655 c 1
 256 673 l 1
 540 673 l 1
 540 655 l 1
 485 655 450 636 450 581 c 2
 450 330 l 1
 512 331 610 342 610 468 c 0
 610 603 648 684 781 684 c 1
 781 666 l 1
 716 666 725 577 725 464 c 0
 725 324 585 290 450 290 c 1
 450 92 l 2
 450 37 485 18 540 18 c 1
 540 0 l 1
 256 0 l 1
EndSplineSet
EndChar

StartChar: alpha
Encoding: 284 945 62
Width: 631
Flags: HMW
HStem: -18 34<197 275 197 291.5> -18 70<535 568 535 583.5> 454 46<206 293>
VStem: 41 106<226.5 315.5 226.5 328.5>
LayerCount: 2
Fore
SplineSet
407 223 m 1
 393 306 328 454 258 454 c 0
 154 454 147 368 147 263 c 0
 147 190 149 16 245 16 c 0
 305 16 380 116 407 223 c 1
442 107 m 1
 425 78 339 -18 244 -18 c 0
 77 -18 41 104 41 265 c 0
 41 392 114 500 256 500 c 0
 366 500 420 390 435 309 c 1
 499 500 l 1
 587 500 l 1
 472 170 l 1
 486 116 518 52 552 52 c 0
 584 52 605 123 604 137 c 1
 622 137 l 1
 622 94 620 -18 547 -18 c 0
 503 -18 477 41 442 107 c 1
EndSplineSet
EndChar

StartChar: beta
Encoding: 285 946 63
Width: 549
Flags: HMW
HStem: -223 21G<61 148 61 61> -18 48 399 55<301 326 298.5 337.5> 707 34<230.5 294.5>
VStem: 77 78<93 93 93 584 584 597> 360 103 410 105<131.5 201>
LayerCount: 2
Fore
SplineSet
155 93 m 1
 182 57 237 30 287 30 c 0
 377 30 410 94 410 169 c 0
 410 233 364 399 311 399 c 0
 291 399 272 393 248 393 c 0
 227 393 208 403 208 427 c 0
 208 450 227 460 247 460 c 0
 270 460 290 454 307 454 c 0
 345 454 361 534 360 581 c 0
 359 647 332 707 257 707 c 0
 204 707 155 657 155 597 c 2
 155 93 l 1
158 37 m 1
 156 -148 l 2
 156 -173 151 -198 148 -223 c 1
 61 -223 l 1
 66 -172 77 -122 77 -71 c 2
 77 584 l 2
 77 683 189 741 268 741 c 0
 376 741 463 691 463 576 c 0
 463 515 430 455 369 432 c 1
 461 389 515 303 515 200 c 0
 515 62 422 -17 329 -18 c 0
 270 -19 208 -1 158 37 c 1
EndSplineSet
EndChar

StartChar: gamma
Encoding: 286 947 64
Width: 411
Flags: HMW
HStem: -225 21G<212 251> 422 77<76.5 142>
VStem: 5 16<307 307> 179 119<-135 -120>
LayerCount: 2
Fore
SplineSet
239 60 m 1
 226 155 192 422 92 422 c 0
 39 422 24 347 21 307 c 1
 5 307 l 1
 6 323 6 343 6 366 c 0
 7 444 45 499 108 499 c 0
 216 499 247 235 265 142 c 1
 267 142 l 1
 380 499 l 1
 484 499 l 1
 280 58 l 1
 283 33 298 -40 298 -108 c 0
 298 -162 276 -225 226 -225 c 0
 198 -225 179 -195 179 -155 c 0
 179 -85 220 11 239 60 c 1
EndSplineSet
EndChar

StartChar: delta
Encoding: 287 948 65
Width: 494
Flags: HMW
HStem: -19 47<243.5 299 243.5 323.5> 700 40<212 237.5>
VStem: 40 99<185 254 185 259.5> 97 49<616 664 616 683.5> 384 97
LayerCount: 2
Fore
SplineSet
286 418 m 1
 176 389 139 304 139 204 c 0
 139 166 154 122 175 87 c 0
 195 53 225 28 262 28 c 0
 336 28 380 113 384 202 c 0
 389 312 298 415 286 418 c 1
255 447 m 1
 207 507 97 558 97 646 c 0
 97 721 180 740 244 740 c 0
 322 740 440 705 440 637 c 0
 440 606 416 589 387 589 c 0
 345 589 330 632 300 664 c 0
 282 684 257 700 218 700 c 0
 184 700 146 678 146 650 c 0
 146 582 248 536 354 453 c 0
 426 396 481 328 481 205 c 0
 481 89 383 -19 264 -19 c 0
 132 -19 40 92 40 194 c 0
 40 325 104 412 255 447 c 1
EndSplineSet
EndChar

StartChar: epsilon
Encoding: 288 949 66
Width: 439
Flags: HMW
HStem: -19 46<179.5 311> 223 47 231 49<196.5 313> 466 36<207 220>
VStem: 22 104<93 162 93 164.5> 35 91
LayerCount: 2
Fore
SplineSet
133 252 m 1
 80 271 36 305 35 359 c 0
 35 466 165 502 249 502 c 0
 305 502 396 472 396 414 c 0
 396 388 379 365 354 365 c 0
 335 365 306 370 295 417 c 0
 288 446 256 467 220 466 c 0
 167 466 127 415 127 376 c 0
 127 308 176 270 225 270 c 0
 253 270 268 280 304 280 c 0
 322 280 340 273 340 255 c 0
 340 232 324 223 306 223 c 0
 269 223 257 231 230 231 c 0
 163 231 126 191 126 133 c 0
 126 53 219 26 281 27 c 0
 341 27 381 48 401 114 c 1
 427 107 l 1
 427 9 337 -19 225 -19 c 0
 134 -19 22 20 22 119 c 0
 22 210 95 247 133 252 c 1
EndSplineSet
EndChar

StartChar: zeta
Encoding: 289 950 67
Width: 494
Flags: HMW
HStem: -225 100<251 352> 6 98<256 285 175 366.5> 736 20G<194 212>
VStem: 60 48<223 288> 102 59<657.5 682> 425 42<-68.5 -34.5>
LayerCount: 2
Fore
SplineSet
197 584 m 1
 124 597 102 634 102 659 c 0
 102 705 176 756 212 756 c 1
 214 738 l 1
 203 733 161 714 161 675 c 0
 161 640 193 617 218 614 c 1
 230 629 330 731 390 731 c 0
 414 731 434 716 434 684 c 0
 434 626 291 577 240 582 c 1
 175 495 108 385 108 245 c 0
 108 201 120 104 230 104 c 0
 340 104 467 100 467 -26 c 0
 467 -147 403 -225 301 -225 c 0
 270 -225 217 -213 217 -173 c 0
 217 -153 231 -125 271 -125 c 0
 296 -125 331 -138 346 -141 c 0
 404 -154 425 -82 425 -55 c 0
 425 -14 389 6 344 6 c 0
 168 6 60 49 60 241 c 0
 60 335 118 496 197 584 c 1
EndSplineSet
EndChar

StartChar: eta
Encoding: 290 951 68
Width: 603
Flags: HMW
HStem: -202 21G<438 527 438 438> 0 21G<121 121 121 206> 443 71<330.5 338.5> 452 21G<57.5 95>
VStem: 0 18<360 392> 121 85<0 343 0 344 0 369.5> 411 89<346 370>
LayerCount: 2
Fore
SplineSet
121 0 m 1
 121 344 l 2
 121 395 115 452 75 452 c 0
 40 452 19 390 18 360 c 1
 0 360 l 1
 0 424 34 506 119 506 c 0
 175 506 206 450 203 398 c 1
 233 486 293 514 368 514 c 0
 450 514 498 449 500 370 c 2
 511 -127 l 2
 511 -139 518 -183 527 -202 c 1
 438 -202 l 1
 434 -178 427 -163 425 -110 c 2
 411 346 l 2
 408 420 368 443 309 443 c 0
 258 443 225 387 206 343 c 1
 206 0 l 1
 121 0 l 1
EndSplineSet
EndChar

StartChar: theta
Encoding: 291 952 69
Width: 521
Flags: HMW
HStem: -17 38<219.5 313.5 219.5 352.5> 316 52<146 146 146 386> 656 34<223 316.5>
VStem: 43 102<368 407.5> 387 98<368 368>
LayerCount: 2
Fore
SplineSet
146 316 m 1
 146 230 172 21 267 21 c 0
 360 21 386 227 386 316 c 1
 146 316 l 1
145 368 m 1
 387 368 l 1
 386 475 367 656 266 656 c 0
 180 656 145 505 145 368 c 1
267 -17 m 0
 101 -17 43 213 43 345 c 0
 43 470 104 690 265 690 c 0
 425 690 485 485 485 341 c 0
 485 204 438 -17 267 -17 c 0
EndSplineSet
EndChar

StartChar: iota
Encoding: 292 953 70
Width: 329
Flags: HMW
HStem: -17 50<220.5 255> 483 20G<193 193>
VStem: 88 85
LayerCount: 2
Fore
SplineSet
321 101 m 1
 316 76 308 -17 202 -17 c 0
 136 -17 108 31 108 75 c 2
 108 303 l 2
 108 434 52 430 20 430 c 1
 20 450 l 1
 110 468 141 484 193 503 c 1
 193 135 l 2
 193 100 196 33 245 33 c 0
 287 33 300 72 302 101 c 1
 321 101 l 1
EndSplineSet
EndChar

StartChar: kappa
Encoding: 293 954 71
Width: 549
Flags: HMW
HStem: 0 21G<119 119 119 194 323 323 323 558> 429 72 434 21<33 33>
VStem: 119 75<0 258 284 341 341 384>
LayerCount: 2
Fore
SplineSet
119 0 m 1
 119 341 l 2
 119 427 68 433 33 434 c 1
 33 455 l 1
 74 458 112 467 194 501 c 1
 194 284 l 1
 266 348 333 414 407 474 c 0
 426 490 456 501 484 501 c 0
 517 501 558 482 558 446 c 0
 558 409 532 396 507 395 c 0
 491 394 475 398 467 405 c 0
 448 418 438 428 426 429 c 0
 416 429 405 424 388 410 c 0
 356 383 325 356 274 305 c 1
 442 91 l 2
 473 54 499 18 558 18 c 1
 558 0 l 1
 323 0 l 1
 323 18 l 1
 351 18 361 27 361 38 c 0
 361 46 356 56 349 65 c 2
 194 258 l 1
 194 0 l 1
 119 0 l 1
EndSplineSet
EndChar

StartChar: lambda
Encoding: 294 955 72
Width: 549
Flags: HMW
HStem: -17 87 663 76<128 181>
VStem: 59 19<560 560> 289 38 529 19<126.5 163>
LayerCount: 2
Fore
SplineSet
24 -17 m 1
 255 498 l 1
 238 571 207 663 155 663 c 0
 101 663 77 584 78 560 c 1
 59 560 l 1
 57 613 87 739 157 739 c 0
 206 739 238 705 249 663 c 0
 292 497 330 308 374 152 c 0
 386 109 415 62 456 62 c 0
 508 62 528 136 529 163 c 1
 548 163 l 1
 548 90 527 -17 441 -17 c 0
 318 -17 320 221 289 365 c 1
 287 365 l 1
 116 -17 l 1
 24 -17 l 1
EndSplineSet
EndChar

StartChar: nu
Encoding: 295 957 73
Width: 521
Flags: HMW
HStem: -16 21G<232 232 232 269> 487 20G<122 122 394.5 443>
LayerCount: 2
Fore
SplineSet
232 -16 m 1
 71 412 l 2
 57 448 32 452 -9 457 c 1
 -9 476 l 1
 61 483 64 482 122 507 c 1
 280 103 l 1
 356 255 l 2
 375 292 383 315 383 345 c 0
 383 360 380 377 376 399 c 0
 367 448 369 507 420 507 c 0
 466 507 475 478 475 451 c 0
 475 409 458 367 432 314 c 0
 378 204 291 28 269 -16 c 1
 232 -16 l 1
EndSplineSet
EndChar

StartChar: xi
Encoding: 296 958 74
Width: 493
Flags: HMW
HStem: -224 21G<291.5 357.5> -4 96<264 352> 384 92<322 324.5> 746 20G<120.5 146>
VStem: 27 49<186.5 250> 64 53<685 714.5> 94 39<503 533.5> 420 49<-82.5 -35>
LayerCount: 2
Fore
SplineSet
153 410 m 1
 112 442 94 479 94 516 c 0
 94 551 109 586 137 618 c 1
 107 626 64 655 64 694 c 0
 64 735 95 766 146 766 c 1
 148 748 l 1
 136 743 117 732 117 699 c 0
 117 671 142 654 171 652 c 1
 200 676 270 736 319 736 c 0
 347 736 360 720 360 698 c 0
 360 645 227 608 193 614 c 1
 162 601 133 561 133 519 c 0
 133 487 146 454 185 430 c 1
 211 445 293 476 351 476 c 0
 376 476 408 469 408 442 c 0
 408 396 354 384 295 384 c 0
 247 384 202 390 201 396 c 1
 162 380 76 306 76 220 c 0
 76 153 150 92 319 92 c 0
 397 92 469 54 469 -22 c 0
 469 -143 410 -224 305 -224 c 0
 278 -224 225 -214 225 -171 c 0
 225 -142 240 -126 270 -124 c 0
 288 -122 313 -127 346 -138 c 0
 381 -150 420 -120 420 -64 c 0
 420 -6 366 -4 338 -4 c 0
 190 -4 27 30 27 205 c 0
 27 295 80 351 153 410 c 1
EndSplineSet
EndChar

StartChar: omicron
Encoding: 297 959 75
Width: 549
Flags: HMW
HStem: -19 44<230 330.5 230 347.5> 468 31<202.5 313.5>
VStem: 35 95<220 300> 411 90<187 259>
LayerCount: 2
Fore
SplineSet
130 267 m 0
 130 173 175 25 285 25 c 0
 376 25 411 122 411 210 c 0
 411 308 374 468 253 468 c 0
 152 468 130 350 130 267 c 0
35 236 m 0
 35 364 122 499 259 499 c 0
 394 499 501 406 501 262 c 0
 501 112 419 -19 276 -19 c 0
 135 -19 35 114 35 236 c 0
EndSplineSet
EndChar

StartChar: pi
Encoding: 298 960 76
Width: 549
Flags: HMW
HStem: -19 94<424.5 458> 401 86<90 530 149 161 222 335 222 222 396 530 396 396>
LayerCount: 2
Fore
SplineSet
10 328 m 1
 21 379 61 487 149 487 c 2
 530 487 l 1
 530 401 l 1
 396 401 l 1
 384 284 384 204 384 166 c 0
 384 127 406 75 443 75 c 0
 490 75 509 140 509 161 c 1
 530 161 l 1
 530 58 494 -19 422 -19 c 0
 305 -19 309 159 318 240 c 2
 335 401 l 1
 222 401 l 1
 206 214 188 104 176 50 c 0
 167 9 152 -19 113 -19 c 0
 68 -19 58 20 58 34 c 0
 58 74 97 99 117 131 c 0
 132 155 132 185 161 401 c 1
 104 401 l 2
 76 401 59 385 27 328 c 1
 10 328 l 1
EndSplineSet
EndChar

StartChar: rho
Encoding: 299 961 77
Width: 549
Flags: HMW
HStem: -230 21G<50 137 50 50> 444 55<199 290>
VStem: 59 88 400 90<184.5 313>
LayerCount: 2
Fore
SplineSet
144 105 m 1
 164 59 210 36 249 36 c 0
 370 36 400 127 400 242 c 0
 400 384 356 444 224 444 c 0
 169 444 137 391 138 336 c 2
 144 105 l 1
147 40 m 1
 147 -115 l 2
 147 -155 147 -190 137 -230 c 1
 50 -230 l 1
 57 -207 61 -173 61 -143 c 2
 57 280 l 2
 56 398 131 499 267 499 c 0
 420 499 490 450 490 263 c 0
 490 81 430 -19 279 -21 c 0
 216 -22 184 6 147 40 c 1
EndSplineSet
EndChar

StartChar: sigma1
Encoding: 300 962 78
Width: 439
Flags: HMW
HStem: -233 21G<252.5 314> -8 105<236.5 307> 395 105<329.5 335.5 233 360> 420 80<233 236>
VStem: 40 42<163.5 284 163.5 291> 398 38<-89.5 -51.5>
LayerCount: 2
Fore
SplineSet
40 210 m 0
 40 372 151 500 315 500 c 0
 356 500 413 491 413 440 c 0
 413 412 383 395 337 395 c 0
 322 395 305 400 288 406 c 0
 267 413 246 420 226 420 c 0
 145 419 82 335 82 233 c 0
 82 94 183 97 290 97 c 0
 377 97 436 53 436 -49 c 0
 436 -162 350 -233 278 -233 c 0
 227 -233 196 -206 196 -175 c 0
 196 -140 222 -121 247 -121 c 0
 263 -121 280 -128 296 -134 c 0
 312 -140 327 -145 341 -145 c 0
 379 -144 398 -107 398 -72 c 0
 398 -31 366 -8 248 -8 c 0
 113 -8 40 81 40 210 c 0
EndSplineSet
EndChar

StartChar: sigma
Encoding: 301 963 79
Width: 603
Flags: HMW
HStem: -21 44<262 350 262 376> 414 86<270.5 588 371 588 371 371>
VStem: 30 101<204.5 313 203 348.5> 433 94<147.5 218>
LayerCount: 2
Fore
SplineSet
318 414 m 1
 223 414 131 364 131 262 c 0
 131 144 214 23 310 23 c 0
 390 23 433 87 433 164 c 0
 433 272 403 339 318 414 c 1
588 414 m 1
 371 414 l 1
 371 412 l 1
 458 365 527 295 527 196 c 0
 527 99 469 -21 283 -21 c 0
 108 -21 30 139 30 270 c 0
 30 427 201 500 329 500 c 2
 588 500 l 1
 588 414 l 1
EndSplineSet
EndChar

StartChar: tau
Encoding: 302 964 80
Width: 439
Flags: HMW
HStem: -19 93 407 93<95 418 183 203 183 418>
VStem: 182 74
LayerCount: 2
Fore
SplineSet
28 301 m 1
 10 301 l 1
 31 379 46 420 78 456 c 0
 103 484 146 500 183 500 c 2
 418 500 l 1
 418 407 l 1
 264 408 l 1
 248 188 l 2
 244 138 254 75 305 74 c 0
 351 73 365 121 372 162 c 1
 390 162 l 1
 394 96 376 -19 283 -19 c 0
 224 -19 182 26 182 130 c 0
 182 229 197 354 203 407 c 1
 112 407 l 2
 78 407 41 337 28 301 c 1
EndSplineSet
EndChar

StartChar: upsilon
Encoding: 303 965 81
Width: 576
Flags: HMW
HStem: -18 48<308 386 308 391.5> 487 20G<92.5 153 345 345>
VStem: 141 86<133 202 133 217.5> 456 79<199.5 300.5 172 338.5>
LayerCount: 2
Fore
SplineSet
7 346 m 1
 17 415 51 507 134 507 c 0
 172 507 201 481 208 432 c 0
 218 360 227 232 227 172 c 0
 227 94 276 30 340 30 c 0
 432 30 456 150 456 249 c 0
 456 428 357 488 339 490 c 1
 345 507 l 1
 497 443 535 356 535 245 c 0
 535 99 462 -18 321 -18 c 0
 201 -18 141 79 141 180 c 0
 141 255 129 365 122 402 c 0
 120 414 109 430 96 430 c 0
 60 429 41 379 29 346 c 1
 7 346 l 1
EndSplineSet
EndChar

StartChar: phi
Encoding: 304 966 82
Width: 521
Flags: HMW
HStem: -224 21G<282 282> 651 20G<233 233>
VStem: 27 91<155 326 155 350> 234 48 237 45 402 88<152 326>
LayerCount: 2
Fore
SplineSet
240 24 m 1
 235 464 l 1
 212 464 118 411 118 241 c 0
 118 69 215 24 240 24 c 1
282 24 m 1
 303 26 402 62 402 242 c 0
 402 410 298 464 282 464 c 1
 282 24 l 1
241 -13 m 1
 171 -13 27 50 27 240 c 0
 27 460 200 500 235 500 c 1
 233 671 l 1
 282 654 l 1
 282 500 l 1
 340 500 490 428 490 250 c 0
 490 18 324 -13 282 -13 c 1
 282 -224 l 1
 243 -212 l 1
 241 -13 l 1
EndSplineSet
EndChar

StartChar: chi
Encoding: 305 967 83
Width: 549
Flags: HMW
HStem: -231 88<370.5 440.5 370.5 448> 423 76<84.5 150>
LayerCount: 2
Fore
SplineSet
13 -231 m 1
 238 179 l 1
 219 248 190 423 110 423 c 0
 59 423 35 340 30 311 c 1
 12 311 l 1
 18 360 34 499 121 499 c 0
 223 499 241 370 265 230 c 1
 420 499 l 1
 522 499 l 1
 296 99 l 1
 305 57 331 -143 410 -143 c 0
 471 -143 502 -68 503 -40 c 1
 522 -40 l 1
 520 -92 494 -231 402 -231 c 0
 308 -231 286 -30 271 51 c 1
 269 51 l 1
 115 -231 l 1
 13 -231 l 1
EndSplineSet
EndChar

StartChar: psi
Encoding: 306 968 84
Width: 686
Flags: HMW
HStem: -228 21G<325 388 325 325> 480 20G<74 151 567.5 639>
VStem: 325 63<-228 -27 -228 -27 12 487>
LayerCount: 2
Fore
SplineSet
325 -27 m 1
 272 -16 206 8 159 71 c 0
 128 113 104 164 92 401 c 0
 89 456 58 460 12 470 c 1
 12 488 l 1
 34 500 68 500 80 500 c 0
 222 500 212 253 225 128 c 0
 233 52 285 22 325 12 c 1
 325 487 l 1
 388 487 l 1
 388 12 l 1
 428 22 480 52 488 128 c 0
 502 253 502 500 633 500 c 0
 645 500 679 500 701 488 c 1
 701 470 l 1
 655 460 624 456 621 401 c 0
 609 164 585 113 554 71 c 0
 507 8 441 -16 388 -27 c 1
 388 -228 l 1
 325 -228 l 1
 325 -27 l 1
EndSplineSet
EndChar

StartChar: omega
Encoding: 307 969 85
Width: 686
Flags: HMW
HStem: -17 46<199 253 478 531> 480 20G<214 297 429 514>
VStem: 42 103<195.5 282 195.5 298> 310 106<260.5 325> 580 104<208.5 282 153.5 293.5>
LayerCount: 2
Fore
SplineSet
363 72 m 1
 334 27 281 -17 225 -17 c 0
 101 -17 42 115 42 225 c 0
 42 371 131 500 297 500 c 1
 297 483 l 1
 177 459 145 334 145 230 c 0
 145 161 160 29 238 29 c 0
 312 29 341 117 339 141 c 1
 327 154 310 227 310 294 c 0
 310 356 322 413 363 413 c 0
 404 413 416 356 416 294 c 0
 416 227 399 154 387 141 c 1
 384 116 416 29 490 29 c 0
 572 29 580 174 580 243 c 0
 580 344 544 460 429 483 c 1
 429 500 l 1
 599 500 684 357 684 207 c 0
 684 100 620 -17 507 -17 c 0
 449 -17 393 25 363 72 c 1
EndSplineSet
EndChar

StartChar: theta1
Encoding: 308 977 86
Width: 631
Flags: HMW
HStem: -18 28<279 378.5> 395 70<126 128.5> 640 41<323 402>
VStem: 137 82<105 172 99.5 192.5> 152 90 249 34<526.5 594 526.5 611> 471 78
LayerCount: 2
Fore
SplineSet
470 390 m 1
 470 417 461 640 343 640 c 0
 303 640 283 611 283 577 c 0
 283 476 430 410 470 390 c 1
18 322 m 1
 35 392 98 465 154 465 c 0
 201 465 242 423 242 371 c 0
 242 291 219 212 219 132 c 0
 219 67 245 10 313 10 c 0
 459 10 472 263 471 347 c 1
 350 413 249 466 249 584 c 0
 249 638 279 681 346 681 c 0
 512 681 549 466 549 363 c 1
 623 326 l 1
 623 273 l 1
 549 319 l 1
 549 130 460 -18 297 -18 c 0
 194 -18 137 48 137 162 c 0
 137 223 156 296 152 356 c 0
 150 376 141 395 116 395 c 0
 80 395 55 355 33 317 c 1
 28 319 23 320 18 322 c 1
EndSplineSet
EndChar

StartChar: Upsilon1
Encoding: 309 978 87
Width: 620
Flags: HMW
HStem: 0 21G<151 151 151 435> 503 182<534.5 553.5 458.5 565> 648 37<458.5 509>
VStem: 240 104<303 306>
LayerCount: 2
Fore
SplineSet
151 0 m 1
 151 18 l 1
 206 18 241 37 241 92 c 2
 240 303 l 2
 239 518 206 611 9 656 c 0
 2 658 -2 662 -2 666 c 0
 -2 673 7 681 20 681 c 0
 167 681 304 595 318 438 c 1
 339 535 390 685 527 685 c 0
 580 685 610 650 610 585 c 0
 610 544 582 503 548 503 c 0
 521 503 495 515 495 547 c 0
 495 577 533 602 533 624 c 0
 533 638 518 648 500 648 c 0
 388 648 350 385 344 306 c 1
 345 92 l 2
 345 37 380 18 435 18 c 1
 435 0 l 1
 151 0 l 1
EndSplineSet
EndChar

StartChar: phi1
Encoding: 310 981 88
Width: 603
Flags: HMW
HStem: -224 21G<277 340 277 277> -12 38<227.5 277> 423 76<362 422.5>
VStem: 36 105<191.5 280 191.5 300> 275 65 487 100<177 279.5>
LayerCount: 2
Fore
SplineSet
340 26 m 1
 431 26 487 119 487 235 c 0
 487 324 461 423 384 423 c 0
 340 423 341 382 340 356 c 2
 340 26 l 1
277 -12 m 1
 148 -13 36 76 36 238 c 0
 36 362 124 499 248 499 c 1
 248 481 l 1
 157 447 141 318 141 242 c 0
 141 141 178 26 277 26 c 1
 274 355 l 2
 272 432 296 499 397 499 c 0
 521 499 587 380 587 233 c 0
 587 86 475 -13 340 -12 c 1
 340 -224 l 1
 277 -224 l 1
 277 -12 l 1
EndSplineSet
EndChar

StartChar: omega1
Encoding: 311 982 89
Width: 713
Flags: HMW
HStem: -18 41<188.5 243> 498 85<294 418 294 294 491 491>
VStem: 35 106<210 297> 304 97<305 305> 573 98<208 292.5 181.5 299>
LayerCount: 2
Fore
SplineSet
331 142 m 1
 313 188 303 262 304 305 c 0
 305 341 302 417 354 417 c 0
 403 417 401 336 401 304 c 0
 401 270 391 200 378 142 c 1
 376 95 421 27 482 27 c 0
 573 27 573 169 573 247 c 0
 573 351 519 468 418 498 c 1
 294 498 l 1
 196 464 141 363 141 245 c 0
 141 175 146 23 231 23 c 0
 288 23 333 101 331 142 c 1
356 69 m 1
 335 30 272 -18 214 -18 c 0
 79 -18 35 112 35 240 c 0
 35 354 109 439 210 500 c 1
 121 493 89 484 30 440 c 1
 12 444 l 1
 50 546 118 583 150 583 c 2
 671 583 l 1
 671 499 l 1
 491 498 l 1
 594 472 671 341 671 244 c 0
 671 119 616 -18 496 -18 c 0
 421 -18 372 27 356 69 c 1
EndSplineSet
EndChar

StartChar: bullet
Encoding: 183 8226 90
Width: 460
Flags: HMW
HStem: 113 21G<180 279.5> 453 20G<180 279.5>
VStem: 50 360<243 342.5>
LayerCount: 2
Fore
SplineSet
230 113 m 0
 130 113 50 193 50 293 c 0
 50 392 130 473 230 473 c 0
 329 473 410 392 410 293 c 0
 410 193 329 113 230 113 c 0
EndSplineSet
EndChar

StartChar: ellipsis
Encoding: 188 8230 91
Width: 1000
Flags: HMW
HStem: -17 112<151.5 167 484.5 500 817.5 833>
VStem: 111 112<23.5 53.5> 444 112<23.5 53.5> 777 112<23.5 53.5>
CounterMasks: 1 70
LayerCount: 2
Fore
SplineSet
777 38 m 0
 777 69 802 95 833 95 c 0
 863 95 889 69 889 39 c 0
 889 8 863 -16 833 -17 c 0
 802 -17 777 8 777 38 c 0
444 38 m 0
 444 69 469 95 500 95 c 0
 530 95 556 69 556 39 c 0
 556 8 530 -16 500 -17 c 0
 469 -17 444 8 444 38 c 0
111 38 m 0
 111 69 136 95 167 95 c 0
 197 95 223 69 223 39 c 0
 223 8 197 -16 167 -17 c 0
 136 -17 111 8 111 38 c 0
EndSplineSet
EndChar

StartChar: minute
Encoding: 312 8242 92
Width: 247
Flags: HMW
HStem: 459 21G<47.5 55.5> 715 20G<159 182.5>
LayerCount: 2
Fore
SplineSet
30 489 m 2
 133 719 l 2
 137 729 151 735 167 735 c 0
 198 735 228 713 228 684 c 0
 228 678 226 668 222 664 c 2
 65 466 l 2
 63 463 58 459 53 459 c 0
 42 459 27 465 27 480 c 0
 27 481 27 483 30 489 c 2
EndSplineSet
EndChar

StartChar: second
Encoding: 313 8243 93
Width: 411
Flags: HMW
HStem: 459 21G<40.5 48.5 232.5 240.5> 717 20G<155 178.5 346 369.5>
LayerCount: 2
Fore
SplineSet
238 459 m 0
 227 459 212 465 212 480 c 0
 212 481 212 483 215 489 c 2
 318 721 l 2
 322 731 338 737 354 737 c 0
 385 737 413 715 413 686 c 0
 413 680 411 670 407 666 c 2
 250 466 l 2
 248 463 243 459 238 459 c 0
46 459 m 0
 35 459 20 465 20 480 c 0
 20 481 20 483 23 489 c 2
 127 721 l 2
 131 731 147 737 163 737 c 0
 194 737 222 715 222 686 c 0
 222 680 220 670 216 666 c 2
 58 466 l 2
 56 463 51 459 46 459 c 0
EndSplineSet
EndChar

StartChar: fraction
Encoding: 164 8260 94
Width: 167
Flags: HMW
HStem: -12 21G<-180 -124 -180 -180> 657 20G<284 340 340 340>
LayerCount: 2
Fore
SplineSet
-124 -12 m 1
 -180 -12 l 1
 284 677 l 1
 340 677 l 1
 -124 -12 l 1
EndSplineSet
EndChar

StartChar: Euro
Encoding: 314 8364 95
Width: 750
Flags: HMW
HStem: -12 63<402.5 508 402.5 512.5> 243 63<20 116 50 116 50 128 199 199 199 555> 369 63<50 116 20 128 50 184 199 614> 622 63<402.5 510>
VStem: 115 67<332.5 341 331 342>
LayerCount: 2
Fore
SplineSet
20 243 m 1
 50 306 l 1
 116 306 l 1
 115 319 115 328 115 337 c 0
 115 347 115 356 116 369 c 1
 20 369 l 1
 50 432 l 1
 128 432 l 1
 165 580 304 685 465 685 c 0
 560 685 650 645 714 581 c 1
 685 520 l 1
 636 580 555 622 465 622 c 0
 340 622 233 540 199 432 c 1
 644 432 l 1
 614 369 l 1
 184 369 l 1
 183 356 182 346 182 336 c 0
 182 326 183 317 184 306 c 1
 585 306 l 1
 555 243 l 1
 199 243 l 1
 238 131 340 51 465 51 c 0
 551 51 633 91 685 155 c 1
 685 65 l 1
 635 25 560 -12 465 -12 c 0
 300 -12 165 97 128 243 c 1
 20 243 l 1
EndSplineSet
EndChar

StartChar: Ifraktur
Encoding: 315 8465 96
Width: 686
Flags: HMW
HStem: -53 83<334 414> 64 68<77 159> 352 23<265 267> 652 88
VStem: 57 39<484 563 480.5 605> 376 70<420 496> 502 76<150 159.5>
LayerCount: 2
Fore
SplineSet
26 44 m 1
 10 61 l 1
 30 73 124 132 149 132 c 0
 169 132 216 111 266 85 c 0
 318 58 370 30 390 30 c 0
 438 30 502 92 502 136 c 0
 502 183 460 245 425 307 c 0
 399 353 376 400 376 440 c 0
 376 463 384 485 466 589 c 1
 415 615 313 654 247 652 c 0
 165 650 96 605 96 521 c 0
 96 440 193 374 267 375 c 1
 265 352 l 1
 157 351 57 427 57 541 c 0
 57 669 188 740 301 740 c 0
 390 740 492 692 565 654 c 1
 525 598 446 506 446 486 c 0
 446 450 468 404 494 357 c 0
 532 289 578 220 578 183 c 0
 578 117 374 -53 341 -53 c 0
 327 -53 268 -23 210 7 c 0
 154 36 99 64 85 64 c 0
 69 64 53 57 26 44 c 1
EndSplineSet
EndChar

StartChar: weierstrass
Encoding: 316 8472 97
Width: 987
Flags: HMW
HStem: -211 33<252.5 299.5 252.5 327.5> -13 36<545.5 625 545.5 666.5> 462 42<660.5 729.5> 553 20G<473 473>
VStem: 159 32<-102 -45.5 -102 -36.5> 210 80<292 327.5> 335 72<-92.5 -79> 440 46<82 102.5 73.5 143.5> 772 98<288 383 287 395.5>
LayerCount: 2
Fore
SplineSet
263 94 m 1
 227 37 191 -21 191 -70 c 0
 191 -134 229 -178 276 -178 c 0
 323 -178 335 -138 335 -98 c 0
 335 -60 317 -14 263 94 c 1
248 124 m 1
 234 161 209 212 210 265 c 0
 210 390 373 506 473 573 c 1
 482 557 l 1
 420 493 290 384 290 305 c 0
 290 279 300 252 322 210 c 1
 424 316 563 504 733 504 c 0
 821 504 870 422 870 344 c 0
 870 230 753 -13 580 -13 c 0
 491 -13 440 46 440 118 c 0
 440 169 473 214 521 215 c 0
 545 216 566 197 566 173 c 0
 566 149 545 121 517 120 c 0
 505 120 486 114 486 91 c 0
 486 56 512 23 579 23 c 0
 671 23 772 215 772 361 c 0
 772 430 748 462 711 462 c 0
 610 462 410 280 335 180 c 1
 368 97 407 45 407 -54 c 0
 407 -131 377 -211 278 -211 c 0
 188 -211 159 -144 159 -74 c 0
 159 1 212 60 248 124 c 1
EndSplineSet
EndChar

StartChar: Rfraktur
Encoding: 317 8476 98
Width: 795
Flags: HMW
HStem: -15 21G<649 649> 40 84<130 186.5> 652 82 677 57<172.5 258>
VStem: 26 33<538.5 601.5 538.5 603.5> 203 53<321.5 375> 346 88
LayerCount: 2
Fore
SplineSet
70 33 m 1
 81 36 156 121 178 124 c 0
 195 124 177 115 263 56 c 1
 306 115 345 260 345 389 c 0
 345 528 326 677 190 677 c 0
 133 677 59 632 59 571 c 0
 59 506 116 476 168 447 c 0
 213 420 256 390 256 360 c 0
 256 341 243 320 200 275 c 1
 177 291 l 1
 183 300 203 312 203 331 c 0
 203 341 195 351 180 360 c 0
 108 400 26 448 26 541 c 0
 26 666 104 734 241 734 c 0
 312 734 386 690 407 623 c 1
 433 642 555 734 573 734 c 0
 589 734 590 730 754 584 c 1
 572 445 l 1
 641 421 650 312 650 212 c 0
 650 114 655 73 689 73 c 0
 704 73 732 91 744 96 c 1
 759 73 l 1
 649 -15 l 1
 577 12 562 75 562 196 c 0
 562 302 543 384 471 384 c 1
 460 404 l 1
 653 548 l 1
 646 555 542 652 519 652 c 0
 498 652 485 638 418 595 c 1
 433 507 433 417 433 348 c 0
 433 215 372 41 220 -15 c 1
 195 1 167 40 136 40 c 0
 124 40 108 33 89 18 c 1
 82 23 77 28 70 33 c 1
EndSplineSet
EndChar

StartChar: Omega
Encoding: 318 8486 99
Width: 768
Flags: HMW
HStem: 0 101<34 273 125 273 125 326 497 645 645 666> 656 32<318 455>
VStem: 34 15<0 162 162 162> 55 116<411 411> 599 117<356 473> 721 15<0 162>
LayerCount: 2
Fore
SplineSet
34 0 m 1
 34 162 l 1
 49 162 l 1
 61 113 83 101 125 101 c 2
 273 101 l 1
 271 129 l 1
 129 150 54 285 55 411 c 0
 56 596 226 688 385 688 c 0
 545 688 716 597 716 407 c 0
 716 283 637 151 499 129 c 1
 497 101 l 1
 645 101 l 2
 687 101 709 113 721 162 c 1
 736 162 l 1
 736 0 l 1
 444 0 l 1
 460 152 l 1
 561 178 599 306 599 406 c 0
 599 540 525 656 385 656 c 0
 251 656 171 540 171 410 c 0
 171 305 201 182 310 152 c 1
 326 0 l 1
 34 0 l 1
EndSplineSet
EndChar

StartChar: aleph
Encoding: 319 8501 100
Width: 823
Flags: HMW
HStem: -18 21G 0 21G<175 175 175 354> 469 132 638 20G
VStem: 175 91<208.5 297.5>
LayerCount: 2
Fore
SplineSet
175 0 m 1
 175 37 l 1
 195 37 231 36 231 65 c 0
 231 93 222 117 212 138 c 0
 196 171 175 197 175 220 c 0
 175 297 221 325 285 390 c 1
 244 436 175 511 175 550 c 0
 175 593 213 642 240 651 c 1
 248 603 266 589 482 335 c 1
 502 381 514 423 555 469 c 1
 500 466 436 480 436 548 c 0
 436 596 457 651 504 658 c 1
 499 616 503 605 557 602 c 0
 569 601 583 601 600 601 c 0
 633 601 656 576 661 542 c 1
 656 457 l 1
 602 470 533 385 533 307 c 0
 533 274 564 247 596 215 c 0
 628 182 661 144 661 88 c 0
 661 22 625 -10 606 -18 c 1
 594 28 546 88 314 357 c 1
 293 335 266 313 266 282 c 0
 266 249 287 216 309 184 c 0
 336 146 365 109 365 76 c 0
 365 62 370 43 354 0 c 1
 175 0 l 1
EndSplineSet
EndChar

StartChar: arrowleft
Encoding: 320 8592 101
Width: 987
Flags: HMW
HStem: -15 21G<283 283> 220 56<137 942 137 942> 491 20G<283 283>
VStem: 32 910
LayerCount: 2
Fore
SplineSet
32 248 m 1
 126 338 196 408 283 511 c 1
 318 476 l 1
 270 416 176 314 137 276 c 1
 942 276 l 1
 942 220 l 1
 137 220 l 1
 176 182 270 80 318 20 c 1
 283 -15 l 1
 196 88 126 158 32 248 c 1
EndSplineSet
EndChar

StartChar: arrowup
Encoding: 321 8593 102
Width: 603
Flags: HMW
HStem: 0 21G<280 280 280 336> 890 20G
VStem: 280 56<0 805 0 805>
LayerCount: 2
Fore
SplineSet
280 0 m 1
 280 805 l 1
 242 766 140 672 80 624 c 1
 45 659 l 1
 148 746 218 816 308 910 c 1
 398 816 468 746 571 659 c 1
 536 624 l 1
 476 672 374 766 336 805 c 1
 336 0 l 1
 280 0 l 1
EndSplineSet
EndChar

StartChar: arrowright
Encoding: 322 8594 103
Width: 987
Flags: HMW
HStem: -15 21G<708 708> 220 56<49 854 49 854> 491 20G<708 708>
LayerCount: 2
Fore
SplineSet
49 220 m 1
 49 276 l 1
 854 276 l 1
 815 314 721 416 673 476 c 1
 708 511 l 1
 795 408 865 338 959 248 c 1
 865 158 795 88 708 -15 c 1
 673 20 l 1
 721 80 815 182 854 220 c 1
 49 220 l 1
EndSplineSet
EndChar

StartChar: arrowdown
Encoding: 323 8595 104
Width: 603
Flags: HMW
HStem: -22 21G 868 20G<280 336 336 336>
VStem: 280 56<83 888 83 888>
LayerCount: 2
Fore
SplineSet
45 229 m 1
 80 264 l 1
 140 216 242 122 280 83 c 1
 280 888 l 1
 336 888 l 1
 336 83 l 1
 374 122 476 216 536 264 c 1
 571 229 l 1
 468 142 398 72 308 -22 c 1
 218 72 148 142 45 229 c 1
EndSplineSet
EndChar

StartChar: arrowboth
Encoding: 324 8596 105
Width: 1042
Flags: HMW
HStem: -15 21G<273 273 775 775> 222 52<129 919 129 919> 491 20G<273 273 775 775>
VStem: 24 1000<248 248>
LayerCount: 2
Fore
SplineSet
24 248 m 1
 139 350 194 417 273 511 c 1
 310 479 l 1
 242 384 214 363 129 274 c 1
 919 274 l 1
 833 362 807 386 738 479 c 1
 775 511 l 1
 854 417 909 350 1024 248 c 1
 909 146 854 79 775 -15 c 1
 738 17 l 1
 807 111 834 133 919 222 c 1
 129 222 l 1
 214 133 242 112 310 17 c 1
 273 -15 l 1
 194 79 139 146 24 248 c 1
EndSplineSet
EndChar

StartChar: carriagereturn
Encoding: 325 8629 106
Width: 658
Flags: HMW
HStem: -16 21G<181 181> 78 55<181 547 181 602 181 547> 609 20G<547 602 602 602>
VStem: 547 55<133 629 78 629>
LayerCount: 2
Fore
SplineSet
15 106 m 1
 181 227 l 1
 181 133 l 1
 547 133 l 1
 547 629 l 1
 602 629 l 1
 602 78 l 1
 181 78 l 1
 181 -16 l 1
 15 106 l 1
EndSplineSet
EndChar

StartChar: arrowdblleft
Encoding: 326 8656 107
Width: 987
Flags: HMW
HStem: 96 53<258 939 258 258> 349 53<258 939 258 939 218 939> 480 33 493 20G<279 279>
VStem: 30 909
LayerCount: 2
Fore
SplineSet
30 249 m 1
 148 360 189 402 279 513 c 1
 320 480 l 1
 258 402 l 1
 939 402 l 1
 939 349 l 1
 218 349 l 1
 114 249 l 1
 218 149 l 1
 939 149 l 1
 939 96 l 1
 258 96 l 1
 320 18 l 1
 279 -15 l 1
 189 96 148 138 30 249 c 1
EndSplineSet
EndChar

StartChar: arrowdblup
Encoding: 327 8657 108
Width: 603
Flags: HMW
HStem: 2 21G<170 170 170 223 383 383 383 436> 891 20G
VStem: 170 53<2 698 698 698> 383 53<2 698 2 746 2 746>
LayerCount: 2
Fore
SplineSet
170 2 m 1
 170 698 l 1
 72 621 l 1
 39 662 l 1
 150 752 192 793 303 911 c 1
 414 793 456 752 567 662 c 1
 534 621 l 1
 436 698 l 1
 436 2 l 1
 383 2 l 1
 383 746 l 1
 303 827 l 1
 223 746 l 1
 223 2 l 1
 170 2 l 1
EndSplineSet
EndChar

StartChar: arrowdblright
Encoding: 328 8658 109
Width: 987
Flags: HMW
HStem: 99 53<45 769 45 726> 341 53<45 726 45 769 45 726>
LayerCount: 2
Fore
SplineSet
45 99 m 1
 45 152 l 1
 769 152 l 1
 870 244 l 1
 769 341 l 1
 45 341 l 1
 45 394 l 1
 726 394 l 1
 659 475 l 1
 705 508 l 1
 795 397 836 355 954 244 c 1
 836 133 795 91 705 -20 c 1
 659 13 l 1
 726 99 l 1
 45 99 l 1
EndSplineSet
EndChar

StartChar: arrowdbldown
Encoding: 329 8659 110
Width: 603
Flags: HMW
HStem: -19 21G 870 20G<175 228 228 228 388 441 441 441>
VStem: 175 53<194 890 146 890> 388 53<194 890 194 890 194 890>
LayerCount: 2
Fore
SplineSet
44 230 m 1
 77 271 l 1
 175 194 l 1
 175 890 l 1
 228 890 l 1
 228 146 l 1
 308 65 l 1
 388 146 l 1
 388 890 l 1
 441 890 l 1
 441 194 l 1
 539 271 l 1
 572 230 l 1
 461 140 419 99 308 -19 c 1
 197 99 155 140 44 230 c 1
EndSplineSet
EndChar

StartChar: arrowdblboth
Encoding: 330 8660 111
Width: 1042
Flags: HMW
HStem: 109 50<244 806 244 244> 331 50<244 806 244 851 200 806>
VStem: 27 996<245 245>
LayerCount: 2
Fore
SplineSet
200 159 m 1
 851 159 l 1
 938 245 l 1
 851 331 l 1
 200 331 l 1
 113 245 l 1
 200 159 l 1
27 245 m 1
 143 351 182 393 280 510 c 1
 320 476 l 1
 244 381 l 1
 806 381 l 1
 730 476 l 1
 770 510 l 1
 868 393 907 351 1023 245 c 1
 907 139 868 97 770 -20 c 1
 730 14 l 1
 806 109 l 1
 244 109 l 1
 320 14 l 1
 280 -20 l 1
 182 97 143 139 27 245 c 1
EndSplineSet
EndChar

StartChar: universal
Encoding: 331 8704 112
Width: 713
Flags: HMW
HStem: 0 21G<329 329 329 388> 457 55<197 519 197 197> 685 20G<31 88 88 88 624 681 681 681>
LayerCount: 2
Fore
SplineSet
361 70 m 1
 519 457 l 1
 197 457 l 1
 361 70 l 1
329 0 m 1
 31 705 l 1
 88 705 l 1
 173 512 l 1
 542 512 l 1
 624 705 l 1
 681 705 l 1
 388 0 l 1
 329 0 l 1
EndSplineSet
EndChar

StartChar: partialdiff
Encoding: 332 8706 113
Width: 494
Flags: HMW
HStem: -20 29<163.5 266.5 161.5 314> 373 39<204 253.5 165 288.5> 698 48<205.5 292>
VStem: 26 86<128 187 126 251> 379 83
LayerCount: 2
Fore
SplineSet
371 309 m 1
 350 332 319 373 258 373 c 0
 150 373 112 226 112 148 c 0
 112 104 124 9 199 9 c 0
 334 9 351 213 371 309 c 1
379 344 m 1
 386 536 343 698 241 698 c 0
 170 698 145 688 104 667 c 1
 65 717 l 1
 95 730 146 746 198 746 c 0
 395 746 462 549 462 393 c 0
 462 268 411 -20 217 -20 c 0
 110 -20 26 66 26 190 c 0
 26 312 106 412 224 412 c 0
 283 412 312 396 379 344 c 1
EndSplineSet
EndChar

StartChar: existential
Encoding: 333 8707 114
Width: 549
Flags: HMW
HStem: 0 55<25 423 25 423 25 478> 342 55<69 423 69 423> 652 55<25 423 25 478>
VStem: 423 55<55 342 342 342 397 652 652 652>
LayerCount: 2
Fore
SplineSet
25 0 m 1
 25 55 l 1
 423 55 l 1
 423 342 l 1
 69 342 l 1
 69 397 l 1
 423 397 l 1
 423 652 l 1
 25 652 l 1
 25 707 l 1
 478 707 l 1
 478 0 l 1
 25 0 l 1
EndSplineSet
EndChar

StartChar: emptyset
Encoding: 334 8709 115
Width: 823
Flags: HMW
HStem: -24 53<374.5 500 374.5 515.5> 669 50<324.5 448>
VStem: 39 56<294 432 294 451.5> 726 55<264 389.5>
LayerCount: 2
Fore
SplineSet
43 9 m 1
 138 103 l 1
 88 151 39 231 39 355 c 0
 39 548 207 719 410 719 c 0
 502 719 586 687 650 632 c 1
 738 719 l 1
 774 685 l 1
 685 597 l 1
 743 532 781 443 781 350 c 0
 781 147 617 -24 414 -24 c 0
 321 -24 238 10 175 66 c 1
 76 -24 l 1
 43 9 l 1
179 146 m 1
 610 593 l 1
 555 639 486 669 410 669 c 0
 239 669 95 509 95 355 c 0
 95 233 155 175 179 146 c 1
216 108 m 1
 268 63 335 29 414 29 c 0
 586 29 726 178 726 350 c 0
 726 429 693 504 646 558 c 1
 216 108 l 1
EndSplineSet
EndChar

StartChar: Delta
Encoding: 335 8710 116
Width: 612
Flags: HMW
HStem: 0 49<61 478 61 608> 668 20G<305 305>
VStem: 6 602<0 0>
LayerCount: 2
Fore
SplineSet
61 49 m 1
 478 49 l 1
 279 517 l 1
 61 49 l 1
6 0 m 1
 305 688 l 1
 608 0 l 1
 6 0 l 1
EndSplineSet
EndChar

StartChar: gradient
Encoding: 336 8711 117
Width: 713
Flags: HMW
HStem: -19 21G<337 337> 667 51<171 606 171 171>
VStem: 36 645<718 718>
LayerCount: 2
Fore
SplineSet
377 162 m 1
 606 667 l 1
 171 667 l 1
 377 162 l 1
337 -19 m 1
 36 718 l 1
 681 718 l 1
 337 -19 l 1
EndSplineSet
EndChar

StartChar: element
Encoding: 337 8712 118
Width: 713
Flags: HMW
HStem: 0 54<194.5 505 268 505> 207 54<100 505 100 505> 414 54<227 505 268 505>
VStem: 45 460<0 207 207 261 0 290.5>
CounterMasks: 1 e0
LayerCount: 2
Fore
SplineSet
100 207 m 1
 110 120 186 54 268 54 c 2
 505 54 l 1
 505 0 l 1
 268 0 l 2
 121 0 45 120 45 234 c 0
 45 347 118 468 268 468 c 2
 505 468 l 1
 505 414 l 1
 268 414 l 2
 186 414 110 348 100 261 c 1
 505 261 l 1
 505 207 l 1
 100 207 l 1
EndSplineSet
EndChar

StartChar: notelement
Encoding: 338 8713 119
Width: 713
Flags: HMW
HStem: -58 21G<138 138> 0 54<239 505 260 505 260 505> 207 54<102 230 102 102 319 505 100 289> 414 54<437 505 261 406> 535 20G<426 426>
VStem: 45 55<261 261 261 307.5>
LayerCount: 2
Fore
SplineSet
166 94 m 1
 230 207 l 1
 102 207 l 1
 110 161 137 121 166 94 c 1
100 261 m 1
 259 261 l 1
 348 416 l 1
 255 416 l 2
 181 416 106 332 100 261 c 1
94 -33 m 1
 138 45 l 1
 73 105 45 157 45 240 c 0
 45 375 163 468 261 468 c 2
 377 468 l 1
 426 555 l 1
 472 530 l 1
 437 468 l 1
 505 468 l 1
 505 414 l 1
 406 414 l 1
 319 261 l 1
 505 261 l 1
 505 207 l 1
 289 207 l 1
 209 66 l 1
 224 56 248 54 260 54 c 2
 505 54 l 1
 505 0 l 1
 250 0 l 2
 228 0 198 8 183 19 c 1
 138 -58 l 1
 94 -33 l 1
EndSplineSet
EndChar

StartChar: suchthat
Encoding: 339 8715 120
Width: 439
Flags: HMW
HStem: -17 47<123.5 175 111.5 220> 213 55<120 318 120 320> 450 50<164.5 166.5>
VStem: 320 94<268 305 176.5 324>
LayerCount: 2
Fore
SplineSet
48 3 m 1
 48 43 l 1
 73 34 99 30 124 30 c 0
 226 30 318 110 318 213 c 1
 120 213 l 1
 120 268 l 1
 320 268 l 1
 320 380 217 450 116 450 c 0
 103 450 89 448 76 445 c 1
 76 488 l 1
 115 497 149 500 180 500 c 0
 355 500 414 349 414 261 c 0
 414 92 291 -17 149 -17 c 0
 98 -17 66 -3 48 3 c 1
EndSplineSet
EndChar

StartChar: product
Encoding: 340 8719 121
Width: 823
Flags: HMW
HStem: -101 23<25 55 302.5 332 25 55 497 526 773.5 803> 728 23<25 39 789 803>
VStem: 122 113<13 619 619 665.5> 593 113<13 619>
LayerCount: 2
Fore
SplineSet
25 -78 m 1
 85 -78 122 -57 122 13 c 2
 122 619 l 2
 122 712 53 728 25 728 c 1
 25 751 l 1
 803 751 l 1
 803 728 l 1
 775 728 706 712 706 619 c 2
 706 13 l 2
 706 -57 744 -78 803 -78 c 1
 803 -101 l 1
 497 -101 l 1
 497 -78 l 1
 555 -78 593 -57 593 13 c 2
 593 700 l 1
 235 700 l 1
 235 13 l 2
 235 -57 273 -78 332 -78 c 1
 332 -101 l 1
 25 -101 l 1
 25 -78 l 1
EndSplineSet
EndChar

StartChar: summation
Encoding: 341 8721 122
Width: 713
Flags: HMW
HStem: -100 103<71 527> 700 45<187 440 187 187>
VStem: 603 20<586 586>
LayerCount: 2
Fore
SplineSet
14 -108 m 1
 363 298 l 1
 14 752 l 1
 48 750 86 745 120 745 c 2
 617 745 l 1
 623 586 l 1
 603 586 l 1
 583 651 568 700 440 700 c 2
 187 700 l 1
 460 342 l 1
 166 3 l 1
 527 3 l 2
 605 3 637 27 672 116 c 1
 695 116 l 1
 670 14 665 -6 652 -108 c 1
 626 -104 590 -97 565 -97 c 2
 81 -100 l 2
 61 -100 34 -108 14 -108 c 1
EndSplineSet
EndChar

StartChar: minus
Encoding: 342 8722 123
Width: 549
Flags: HMW
HStem: 233 55<11 535 11 535>
LayerCount: 2
Fore
SplineSet
11 233 m 1
 11 288 l 1
 535 288 l 1
 535 233 l 1
 11 233 l 1
EndSplineSet
EndChar

StartChar: asteriskmath
Encoding: 343 8727 124
Width: 500
Flags: HMW
HStem: 134 21G<232.5 259> 321 46<231 234 230.5 235> 386 80 531 20G<232.5 259.5>
VStem: 237 18<379 398>
LayerCount: 2
Fore
SplineSet
65 256 m 0
 65 287 105 299 137 304 c 0
 162 309 188 316 215 332 c 0
 224 337 228 341 228 344 c 0
 228 347 223 351 212 356 c 0
 154 383 154 381 125 386 c 0
 85 393 65 401 65 427 c 0
 65 449 81 466 105 466 c 0
 138 466 149 431 171 407 c 0
 182 396 196 384 218 373 c 0
 225 369 229 367 232 367 c 0
 236 367 237 373 237 385 c 0
 237 411 230 431 223 451 c 0
 217 470 211 488 211 512 c 0
 211 530 219 551 246 551 c 0
 273 551 281 529 281 511 c 0
 281 486 275 468 269 451 c 0
 262 431 255 412 255 385 c 0
 255 372 256 367 260 367 c 0
 263 367 268 370 274 373 c 0
 288 381 305 393 317 405 c 0
 344 433 362 465 391 465 c 0
 410 465 427 453 427 428 c 0
 427 404 400 391 388 388 c 0
 348 378 346 387 280 356 c 0
 271 351 267 347 267 344 c 0
 267 339 273 336 280 332 c 0
 303 320 335 312 363 304 c 0
 392 296 427 287 427 256 c 0
 427 234 413 222 397 222 c 0
 370 222 356 244 332 268 c 0
 319 281 300 298 273 315 c 0
 266 319 263 320 260 320 c 0
 254 320 256 309 256 305 c 0
 256 284 260 268 265 253 c 0
 273 228 283 208 283 178 c 0
 282 157 272 134 246 134 c 0
 219 134 208 155 208 178 c 0
 208 208 219 228 227 252 c 0
 232 267 237 284 237 305 c 0
 237 309 238 321 232 321 c 0
 230 321 223 320 218 317 c 0
 186 297 174 286 155 265 c 0
 135 243 127 222 104 222 c 0
 84 222 65 234 65 256 c 0
EndSplineSet
EndChar

StartChar: radical
Encoding: 344 8730 125
Width: 549
Flags: HMW
HStem: -38 955<365 480>
VStem: 10 505<460 912>
LayerCount: 2
Fore
SplineSet
365 -38 m 1
 122 474 l 1
 26 427 l 1
 10 460 l 1
 156 532 l 1
 353 119 l 1
 480 917 l 1
 515 912 l 1
 365 -38 l 1
EndSplineSet
EndChar

StartChar: proportional
Encoding: 345 8733 126
Width: 713
Flags: HMW
HStem: 123 51<537 568.5 537 573> 352 52<138 197.5>
VStem: 27 53<249.5 282 249.5 299>
LayerCount: 2
Fore
SplineSet
324 269 m 1
 309 289 223 352 172 352 c 0
 104 352 80 295 80 269 c 0
 80 230 117 175 170 175 c 0
 230 175 310 245 324 269 c 1
365 237 m 1
 301 175 241 123 166 123 c 0
 83 123 27 193 27 270 c 0
 27 328 81 404 169 404 c 0
 237 404 295 363 366 304 c 1
 442 365 477 404 561 404 c 0
 601 404 626 380 639 372 c 1
 610 334 l 1
 590 350 570 356 549 356 c 0
 504 356 457 319 405 270 c 1
 464 213 514 174 560 174 c 0
 577 174 593 181 607 193 c 1
 639 159 l 1
 619 139 590 123 556 123 c 0
 487 123 408 194 365 237 c 1
EndSplineSet
EndChar

StartChar: infinity
Encoding: 346 8734 127
Width: 713
Flags: HMW
HStem: 124 51<142.5 197 142.5 217.5> 355 49<166 192>
VStem: 26 51<239.5 287.5 239.5 306> 635 53<236 282>
LayerCount: 2
Fore
SplineSet
390 269 m 1
 449 212 491 173 533 173 c 0
 582 173 635 203 635 269 c 0
 635 295 608 353 533 353 c 0
 475 353 453 324 390 269 c 1
323 269 m 1
 258 323 218 355 166 355 c 0
 104 355 77 306 77 269 c 0
 77 210 119 175 166 175 c 0
 228 175 277 218 323 269 c 1
357 236 m 1
 333 215 269 124 166 124 c 0
 73 124 26 195 26 269 c 0
 26 343 93 403 166 404 c 0
 253 404 295 360 357 302 c 1
 412 355 448 404 533 404 c 0
 623 404 688 339 688 269 c 0
 688 195 638 124 533 124 c 0
 449 124 381 215 357 236 c 1
EndSplineSet
EndChar

StartChar: angle
Encoding: 347 8736 128
Width: 768
Flags: HMW
HStem: 0 55<160 738 160 738> 653 20G<697 697>
LayerCount: 2
Fore
SplineSet
26 0 m 1
 697 673 l 1
 738 636 l 1
 160 55 l 1
 738 55 l 1
 738 0 l 1
 26 0 l 1
EndSplineSet
EndChar

StartChar: logicaland
Encoding: 348 8743 129
Width: 603
Flags: HMW
HStem: 0 21G<23 23 23 88 518 518 518 583> 434 20G<303 303>
LayerCount: 2
Fore
SplineSet
23 0 m 1
 303 454 l 1
 583 0 l 1
 518 0 l 1
 303 350 l 1
 88 0 l 1
 23 0 l 1
EndSplineSet
EndChar

StartChar: logicalor
Encoding: 349 8744 130
Width: 603
Flags: HMW
HStem: 0 21G<304 304> 457 20G<74 74 534 534>
VStem: 30 548<448 448>
LayerCount: 2
Fore
SplineSet
30 448 m 1
 74 477 l 1
 304 102 l 1
 534 477 l 1
 578 448 l 1
 304 0 l 1
 30 448 l 1
EndSplineSet
EndChar

StartChar: intersection
Encoding: 350 8745 131
Width: 768
Flags: HMW
HStem: 0 21G<40 40 40 95 677 677 677 732> 461 48<314 465>
VStem: 40 55<0 189 0 275.5> 677 55<0 189 0 251.5>
LayerCount: 2
Fore
SplineSet
40 0 m 1
 40 189 l 2
 40 362 195 509 386 509 c 0
 577 509 732 362 732 189 c 2
 732 0 l 1
 677 0 l 1
 677 189 l 2
 677 314 544 461 386 461 c 0
 242 461 95 332 95 189 c 2
 95 0 l 1
 40 0 l 1
EndSplineSet
EndChar

StartChar: union
Encoding: 351 8746 132
Width: 768
Flags: HMW
HStem: -17 47<314 465 314 481.5> 472 20G<40 95 95 95 677 732 732 732>
VStem: 40 55<301 302 302 492> 677 55<302 492>
LayerCount: 2
Fore
SplineSet
40 301 m 2
 40 492 l 1
 95 492 l 1
 95 302 l 2
 95 159 242 30 386 30 c 0
 544 30 677 177 677 302 c 2
 677 492 l 1
 732 492 l 1
 732 301 l 2
 732 128 577 -17 386 -17 c 0
 195 -17 40 128 40 301 c 2
EndSplineSet
EndChar

StartChar: integral
Encoding: 352 8747 133
Width: 274
Flags: HMW
HStem: -107 112<50.5 67 40 141.5> 809 107<231.5 248 170.5 260.5>
VStem: 120 70<523 556 488 596.5>
LayerCount: 2
Fore
SplineSet
2 -51 m 0
 2 -8 26 5 54 5 c 0
 80 5 97 -25 112 -25 c 0
 127 -25 128 -1 126 46 c 0
 124 120 119 213 120 523 c 0
 120 670 111 916 230 916 c 0
 266 916 291 893 291 854 c 0
 291 827 273 809 248 809 c 0
 215 809 200 835 184 835 c 0
 175 835 172 828 171 818 c 0
 169 781 190 624 190 488 c 0
 186 350 215 -107 68 -107 c 0
 33 -107 2 -84 2 -51 c 0
EndSplineSet
EndChar

StartChar: therefore
Encoding: 353 8756 134
Width: 863
Flags: HMW
HStem: 0 129<210 246 619 653> 348 130<414 450>
VStem: 163 129<47 83> 367 130<395 431> 572 129<47 83>
CounterMasks: 1 38
LayerCount: 2
Fore
SplineSet
367 413 m 0
 367 449 396 478 432 478 c 0
 468 478 497 449 497 413 c 0
 497 377 468 348 432 348 c 0
 396 348 367 377 367 413 c 0
572 65 m 0
 572 101 599 129 635 129 c 0
 671 129 701 101 701 65 c 0
 701 29 673 0 637 0 c 0
 601 0 572 29 572 65 c 0
163 65 m 0
 163 101 192 129 228 129 c 0
 264 129 292 101 292 65 c 0
 292 29 264 0 228 0 c 0
 192 0 163 29 163 65 c 0
EndSplineSet
EndChar

StartChar: similar
Encoding: 354 8764 135
Width: 549
Flags: HMW
HStem: 203 52<378 409.5> 255 52<129.5 167>
VStem: 17 512<241 273>
LayerCount: 2
Fore
SplineSet
49 203 m 1
 17 241 l 1
 44 265 77 307 152 307 c 0
 199 307 236 293 276 279 c 0
 314 266 358 255 398 255 c 0
 454 255 482 292 496 307 c 1
 529 273 l 1
 520 255 494 234 463 219 c 0
 443 210 421 203 398 203 c 0
 351 203 298 216 260 228 c 0
 213 243 182 255 152 255 c 0
 107 255 76 233 49 203 c 1
EndSplineSet
EndChar

StartChar: congruent
Encoding: 355 8773 136
Width: 549
Flags: HMW
HStem: 0 55<11 537 11 537> 184 55<11 537 11 537> 374 47<379 409.5> 426 48<135.5 170 126.5 174>
LayerCount: 2
Fore
SplineSet
58 370 m 1
 18 396 l 1
 38 428 83 474 170 474 c 0
 215 473 258 456 295 442 c 0
 326 430 366 421 391 421 c 0
 455 421 479 459 493 475 c 1
 530 451 l 1
 522 436 511 411 467 390 c 0
 444 379 422 374 397 374 c 0
 361 374 320 384 267 403 c 0
 221 419 187 426 161 426 c 0
 110 426 87 402 58 370 c 1
11 0 m 1
 11 55 l 1
 537 55 l 1
 537 0 l 1
 11 0 l 1
11 184 m 1
 11 239 l 1
 537 239 l 1
 537 184 l 1
 11 184 l 1
EndSplineSet
EndChar

StartChar: approxequal
Encoding: 356 8776 137
Width: 549
Flags: HMW
HStem: 135 51<377.5 424> 291 51<377.5 424>
VStem: 14 514<172 205 205 329>
LayerCount: 2
Fore
SplineSet
46 135 m 1
 14 172 l 1
 44 197 79 238 154 238 c 0
 201 238 241 225 281 212 c 0
 320 199 357 186 398 186 c 0
 454 186 479 223 493 238 c 1
 528 205 l 1
 513 176 453 135 395 135 c 0
 349 135 308 144 271 155 c 0
 222 169 180 185 149 185 c 0
 104 185 73 165 46 135 c 1
46 291 m 1
 14 329 l 1
 44 354 79 394 154 394 c 0
 201 394 242 380 282 367 c 0
 320 354 357 342 398 342 c 0
 454 342 479 379 493 394 c 1
 528 361 l 1
 513 332 453 291 395 291 c 0
 349 291 306 300 269 311 c 0
 220 325 180 341 149 341 c 0
 104 341 73 321 46 291 c 1
EndSplineSet
EndChar

StartChar: notequal
Encoding: 357 8800 138
Width: 549
Flags: HMW
HStem: -25 21G<144 144> 136 55<15 170 15 200 15 235 265 540> 330 55<15 277 15 308 15 342 372 540> 529 20G<399 399>
LayerCount: 2
Fore
SplineSet
94 0 m 1
 170 136 l 1
 15 136 l 1
 15 191 l 1
 200 191 l 1
 277 330 l 1
 15 330 l 1
 15 385 l 1
 308 385 l 1
 399 549 l 1
 448 521 l 1
 372 385 l 1
 540 385 l 1
 540 330 l 1
 342 330 l 1
 265 191 l 1
 540 191 l 1
 540 136 l 1
 235 136 l 1
 144 -25 l 1
 94 0 l 1
EndSplineSet
EndChar

StartChar: equivalence
Encoding: 358 8801 139
Width: 549
Flags: HMW
HStem: 82 55<14 538 14 538> 235 55<14 538 14 538> 388 55<14 538 14 538>
VStem: 14 524<82 137 82 137 235 290 82 290 388 443 82 443>
CounterMasks: 1 e0
LayerCount: 2
Fore
SplineSet
14 82 m 1
 14 137 l 1
 538 137 l 1
 538 82 l 1
 14 82 l 1
14 235 m 1
 14 290 l 1
 538 290 l 1
 538 235 l 1
 14 235 l 1
14 388 m 1
 14 443 l 1
 538 443 l 1
 538 388 l 1
 14 388 l 1
EndSplineSet
EndChar

StartChar: lessequal
Encoding: 359 8804 140
Width: 549
Flags: HMW
HStem: 0 55<29 526 29 526> 619 20G<526 526>
LayerCount: 2
Fore
SplineSet
29 347 m 1
 29 409 l 1
 526 639 l 1
 526 577 l 1
 93 378 l 1
 526 183 l 1
 526 121 l 1
 29 347 l 1
29 0 m 1
 29 55 l 1
 526 55 l 1
 526 0 l 1
 29 0 l 1
EndSplineSet
EndChar

StartChar: greaterequal
Encoding: 360 8805 141
Width: 549
Flags: HMW
HStem: 0 55<29 526 29 526> 619 20G<29 29>
LayerCount: 2
Fore
SplineSet
29 121 m 1
 29 183 l 1
 462 378 l 1
 29 577 l 1
 29 639 l 1
 526 409 l 1
 526 347 l 1
 29 121 l 1
29 0 m 1
 29 55 l 1
 526 55 l 1
 526 0 l 1
 29 0 l 1
EndSplineSet
EndChar

StartChar: propersubset
Encoding: 361 8834 142
Width: 713
Flags: HMW
HStem: 0 55<217 690 285 690 285 690> 415 55<286 287 287 690>
VStem: 38 58
LayerCount: 2
Fore
SplineSet
690 0 m 1
 282 0 l 2
 152 0 38 98 39 231 c 0
 40 345 127 470 286 470 c 2
 690 470 l 1
 690 415 l 1
 287 415 l 2
 183 415 97 332 97 231 c 0
 97 144 179 56 285 55 c 2
 690 55 l 1
 690 0 l 1
EndSplineSet
EndChar

StartChar: propersuperset
Encoding: 362 8835 143
Width: 713
Flags: HMW
HStem: 0 55<20 425 20 428 20 425> 415 55<20 423 20 424>
VStem: 615 58<187.5 281.5>
LayerCount: 2
Fore
SplineSet
428 0 m 2
 20 0 l 1
 20 55 l 1
 425 55 l 2
 531 56 615 144 615 231 c 0
 615 332 527 415 423 415 c 2
 20 415 l 1
 20 470 l 1
 424 470 l 2
 583 470 673 345 673 231 c 0
 673 98 558 0 428 0 c 2
EndSplineSet
EndChar

StartChar: notsubset
Encoding: 363 8836 144
Width: 713
Flags: HMW
HStem: -70 21G<249 249 249 309> 0 55<374 690 374 690 345 690> 414 55<273 278 278 490 578 690 273 550> 520 20G<555 615 615 615>
VStem: 36 58<185.5 278.5 185.5 308.5>
LayerCount: 2
Fore
SplineSet
313 54 m 1
 490 414 l 1
 278 414 l 2
 172 414 94 322 94 235 c 0
 94 136 185 55 313 54 c 1
249 -70 m 1
 285 -1 l 1
 161 0 36 76 36 233 c 0
 36 384 161 469 273 469 c 2
 519 469 l 1
 555 540 l 1
 615 540 l 1
 578 469 l 1
 690 469 l 1
 690 414 l 1
 550 414 l 1
 374 55 l 1
 690 55 l 1
 690 0 l 1
 345 0 l 1
 309 -70 l 1
 249 -70 l 1
EndSplineSet
EndChar

StartChar: reflexsubset
Encoding: 364 8838 145
Width: 713
Flags: HMW
HStem: -125 55<37 690 37 690> 0 55<211.5 690 285 690 285 690> 415 55<286 287 287 690>
VStem: 37 56
LayerCount: 2
Fore
SplineSet
690 0 m 1
 282 0 l 2
 141 0 37 98 37 231 c 0
 37 340 114 470 286 470 c 2
 690 470 l 1
 690 415 l 1
 287 415 l 2
 189 415 94 344 93 236 c 0
 92 155 161 56 285 55 c 2
 690 55 l 1
 690 0 l 1
37 -70 m 1
 690 -70 l 1
 690 -125 l 1
 37 -125 l 1
 37 -70 l 1
EndSplineSet
EndChar

StartChar: reflexsuperset
Encoding: 365 8839 146
Width: 713
Flags: HMW
HStem: -125 55<20 673 20 673> 0 55<20 425 20 428 20 425> 415 55<20 423 20 424>
VStem: 617 56<195.5 285.5>
LayerCount: 2
Fore
SplineSet
428 0 m 2
 20 0 l 1
 20 55 l 1
 425 55 l 2
 549 56 617 155 617 236 c 0
 617 344 521 415 423 415 c 2
 20 415 l 1
 20 470 l 1
 424 470 l 2
 596 470 673 340 673 231 c 0
 673 98 569 0 428 0 c 2
20 -125 m 1
 20 -70 l 1
 673 -70 l 1
 673 -125 l 1
 20 -125 l 1
EndSplineSet
EndChar

StartChar: circleplus
Encoding: 366 8853 147
Width: 768
Flags: HMW
HStem: -15 53<307.5 468.5 307.5 483.5> 303 54<144 361 144 361 415 633> 622 53<307.5 468.5>
VStem: 43 57<249.5 410.5 249.5 425.5> 361 54<82 303 82 303 357 576> 680 53<249.5 410.5>
CounterMasks: 1 e0
LayerCount: 2
Fore
SplineSet
43 330 m 0
 43 521 197 675 388 675 c 0
 579 675 733 521 733 330 c 0
 733 139 579 -15 388 -15 c 0
 197 -15 43 139 43 330 c 0
100 330 m 0
 100 169 227 38 388 38 c 0
 549 38 680 169 680 330 c 0
 680 491 549 622 388 622 c 0
 227 622 100 491 100 330 c 0
144 303 m 1
 144 357 l 1
 361 357 l 1
 361 576 l 1
 415 576 l 1
 415 357 l 1
 633 357 l 1
 633 303 l 1
 415 303 l 1
 415 82 l 1
 361 82 l 1
 361 303 l 1
 144 303 l 1
EndSplineSet
EndChar

StartChar: circlemultiply
Encoding: 367 8855 148
Width: 768
Flags: HMW
HStem: -17 53<307.5 468.5 307.5 483.5> 620 53<307.5 468.5>
VStem: 43 53<247.5 408.5 247.5 423.5> 680 53<247.5 408.5>
LayerCount: 2
Fore
SplineSet
96 328 m 0
 96 167 227 36 388 36 c 0
 549 36 680 167 680 328 c 0
 680 489 549 620 388 620 c 0
 227 620 96 489 96 328 c 0
43 328 m 0
 43 519 197 673 388 673 c 0
 579 673 733 519 733 328 c 0
 733 137 579 -17 388 -17 c 0
 197 -17 43 137 43 328 c 0
192 171 m 1
 349 328 l 1
 192 485 l 1
 231 524 l 1
 388 366 l 1
 544 522 l 1
 583 484 l 1
 427 328 l 1
 585 169 l 1
 546 131 l 1
 388 290 l 1
 231 132 l 1
 192 171 l 1
EndSplineSet
EndChar

StartChar: perpendicular
Encoding: 368 8869 149
Width: 658
Flags: HMW
HStem: 0 55<15 306 15 306 361 652> 654 20G<306 361 361 361>
VStem: 306 55<55 674 55 674>
LayerCount: 2
Fore
SplineSet
15 0 m 1
 15 55 l 1
 306 55 l 1
 306 674 l 1
 361 674 l 1
 361 55 l 1
 652 55 l 1
 652 0 l 1
 15 0 l 1
EndSplineSet
EndChar

StartChar: dotmath
Encoding: 369 8901 150
Width: 250
Flags: HMW
HStem: 210 100<105 132.5>
VStem: 69 100<246 273.5>
LayerCount: 2
Fore
SplineSet
69 260 m 0
 69 287 91 310 119 310 c 0
 146 310 169 287 169 260 c 0
 169 232 146 210 119 210 c 0
 91 210 69 232 69 260 c 0
EndSplineSet
EndChar

StartChar: integraltp
Encoding: 370 8992 151
Width: 686
Flags: HMW
HStem: -83 21G<332 332 332 402> 770 151<632 657.5 605 673>
VStem: 332 70<-83 296 296 300 -83 583.5>
LayerCount: 2
Fore
SplineSet
332 -83 m 1
 332 296 l 2
 332 871 575 921 635 921 c 0
 680 921 715 885 715 849 c 0
 715 810 695 770 651 770 c 0
 613 770 595 799 595 823 c 0
 595 842 606 860 615 865 c 1
 611 867 604 869 596 869 c 0
 561 869 402 800 402 300 c 2
 402 -83 l 1
 332 -83 l 1
EndSplineSet
EndChar

StartChar: integralbt
Encoding: 371 8993 152
Width: 686
Flags: HMW
HStem: -81 149<95.5 121 80 148> 901 20G<346 415 415 415>
VStem: 346 69<538 542 542 921>
LayerCount: 2
Fore
SplineSet
138 -27 m 1
 142 -29 149 -31 157 -31 c 0
 192 -31 346 38 346 538 c 2
 346 921 l 1
 415 921 l 1
 415 542 l 2
 415 -33 178 -81 118 -81 c 0
 73 -81 39 -46 39 -10 c 0
 39 29 58 68 102 68 c 0
 140 68 158 39 158 15 c 0
 158 -4 147 -22 138 -27 c 1
EndSplineSet
EndChar

StartChar: angleleft
Encoding: 372 9001 153
Width: 329
Flags: HMW
HStem: -198 21G<255 255> 726 20G<255 255>
LayerCount: 2
Fore
SplineSet
25 274 m 1
 255 746 l 1
 306 722 l 1
 88 274 l 1
 306 -173 l 1
 255 -198 l 1
 25 274 l 1
EndSplineSet
EndChar

StartChar: angleright
Encoding: 373 9002 154
Width: 329
Flags: HMW
HStem: -198 21G<72 72> 726 20G<72 72>
LayerCount: 2
Fore
SplineSet
72 -198 m 1
 21 -173 l 1
 239 274 l 1
 21 722 l 1
 72 746 l 1
 302 274 l 1
 72 -198 l 1
EndSplineSet
EndChar

StartChar: lozenge
Encoding: 374 9674 155
Width: 494
Flags: HMW
HStem: 0 21G<212 212 212 272> 725 20G<212 272 272 272>
VStem: 18 60<377 377> 408 60<377 377>
LayerCount: 2
Fore
SplineSet
242 55 m 1
 408 377 l 1
 242 691 l 1
 78 377 l 1
 242 55 l 1
212 0 m 1
 18 377 l 1
 212 745 l 1
 272 745 l 1
 468 377 l 1
 272 0 l 1
 212 0 l 1
EndSplineSet
EndChar

StartChar: spade
Encoding: 375 9824 156
Width: 753
Flags: HMW
HStem: -36 21G<295 295 295 447> 528 20G
VStem: 344 54<74 74>
LayerCount: 2
Fore
SplineSet
295 -36 m 1
 302 -26 343 7 344 74 c 0
 345 112 333 132 320 132 c 0
 311 132 307 127 304 120 c 0
 287 82 260 23 199 23 c 0
 135 23 113 86 113 130 c 0
 113 183 136 222 178 277 c 0
 272 401 300 436 371 548 c 1
 442 436 470 401 564 277 c 0
 606 222 629 183 629 130 c 0
 629 82 598 25 550 25 c 0
 485 25 462 70 439 116 c 0
 434 126 430 131 424 131 c 0
 406 131 397 110 398 74 c 0
 399 7 440 -26 447 -36 c 1
 295 -36 l 1
EndSplineSet
EndChar

StartChar: club
Encoding: 376 9827 157
Width: 753
Flags: HMW
HStem: -26 21G<299 299 299 447> 142 131
VStem: 337 71<273.5 284.5> 348 50<60 104.5>
LayerCount: 2
Fore
SplineSet
299 -26 m 1
 325 6 348 27 348 93 c 0
 348 116 348 142 334 142 c 0
 325 142 309 130 284 102 c 0
 258 72 229 59 193 59 c 0
 128 59 86 118 86 186 c 0
 86 255 127 311 196 311 c 0
 240 311 279 281 294 273 c 0
 319 261 337 266 337 281 c 0
 337 288 334 294 329 300 c 0
 314 316 244 352 244 419 c 0
 244 502 308 533 373 533 c 0
 437 533 501 504 501 426 c 0
 501 356 435 319 417 300 c 0
 412 295 408 288 408 281 c 0
 408 266 425 259 452 273 c 0
 467 281 512 311 556 311 c 0
 624 311 660 252 660 182 c 0
 660 120 619 60 561 60 c 0
 522 60 490 70 463 102 c 0
 440 130 425 143 415 143 c 0
 401 143 398 124 398 93 c 0
 398 27 420 7 447 -26 c 1
 299 -26 l 1
EndSplineSet
EndChar

StartChar: heart
Encoding: 377 9829 158
Width: 753
Flags: HMW
HStem: -33 21G 512 20G<210 254 494 538>
LayerCount: 2
Fore
SplineSet
374 -33 m 1
 296 82 281 110 190 227 c 0
 149 280 117 333 117 390 c 0
 117 506 189 532 231 532 c 0
 277 532 323 511 348 444 c 0
 356 425 359 403 374 403 c 0
 389 403 392 425 400 444 c 0
 425 511 471 532 517 532 c 0
 559 532 631 506 631 390 c 0
 631 333 599 280 558 227 c 0
 467 110 452 82 374 -33 c 1
EndSplineSet
EndChar

StartChar: diamond
Encoding: 378 9830 159
Width: 753
Flags: HMW
HStem: -36 21G<374 374> 530 20G<374 374>
VStem: 142 458<257 257>
LayerCount: 2
Fore
SplineSet
142 257 m 1
 374 550 l 1
 600 257 l 1
 374 -36 l 1
 142 257 l 1
EndSplineSet
EndChar

StartChar: copyrightserif
Encoding: 379 -1 160
Width: 790
Flags: HMW
HStem: -15 40<312 480 312 491.5> 129 38<373.5 433.5 373.5 446> 494 26<359.5 416.5 345.5 429.5> 635 40<312 480>
VStem: 51 40<246 414 246 425.5> 209 65<278 366 278 378> 528 20<390 390> 701 40<246 414>
LayerCount: 2
Fore
SplineSet
91 330 m 0
 91 162 228 25 396 25 c 0
 564 25 701 162 701 330 c 0
 701 498 564 635 396 635 c 0
 228 635 91 498 91 330 c 0
51 330 m 0
 51 521 205 675 396 675 c 0
 587 675 741 521 741 330 c 0
 741 139 587 -15 396 -15 c 0
 205 -15 51 139 51 330 c 0
539 220 m 1
 550 202 l 1
 528 179 484 129 408 129 c 0
 289 129 209 209 209 326 c 0
 209 430 294 520 397 520 c 0
 436 520 468 508 489 503 c 0
 507 499 522 504 525 518 c 1
 544 518 l 1
 548 390 l 1
 528 390 l 1
 518 463 459 494 400 494 c 0
 319 494 274 403 274 329 c 0
 274 227 336 167 411 167 c 0
 456 167 489 179 539 220 c 1
EndSplineSet
EndChar

StartChar: registerserif
Encoding: 380 -1 161
Width: 790
Flags: HMW
HStem: -17 40<395 479 395 490> 155 18<230 241.5 230 241.5 379 390 590.5 597> 330 23<343 369 343 343> 511 24<358 397> 633 40<310 478.5>
VStem: 50 40<243 328> 279 64<209 212 212 330 353 477 477 479> 474 68<410 442> 700 40<243.5 412>
LayerCount: 2
Fore
SplineSet
343 353 m 1
 402 354 474 360 474 442 c 0
 473 493 431 511 363 511 c 0
 353 511 343 496 343 479 c 2
 343 353 l 1
230 155 m 1
 230 173 l 1
 253 173 279 190 279 209 c 2
 279 477 l 2
 279 506 275 517 235 517 c 1
 235 535 l 1
 402 535 l 2
 462 535 542 518 542 441 c 0
 542 379 499 356 441 339 c 1
 561 187 l 2
 572 173 584 173 597 173 c 1
 597 155 l 1
 502 155 l 1
 369 330 l 1
 343 330 l 1
 343 212 l 2
 343 188 368 173 390 173 c 1
 390 155 l 1
 230 155 l 1
90 327 m 0
 90 159 226 22 395 23 c 0
 563 23 700 159 700 328 c 0
 700 496 563 633 394 633 c 0
 226 633 90 496 90 327 c 0
50 328 m 0
 49 518 204 673 395 673 c 0
 585 673 740 518 740 328 c 0
 740 137 585 -17 395 -17 c 0
 204 -17 50 137 50 328 c 0
EndSplineSet
EndChar

StartChar: trademarkserif
Encoding: 381 -1 162
Width: 890
Flags: HMW
HStem: 293 21G<99 99 99 259 372 501 372 372 594 594 594 612 695 695 695 855> 650 23<113 113 246 246> 655 18<370 386 844.5 855>
VStem: 18 18<575 576> 150 59<349 651> 323 18<575 576> 423 27<349 600> 746 59<349 616 616 616>
LayerCount: 2
Fore
SplineSet
372 293 m 1
 372 311 l 1
 403 311 423 326 423 349 c 2
 423 620 l 2
 423 658 402 655 370 655 c 1
 370 673 l 1
 484 673 l 1
 616 385 l 1
 742 673 l 1
 855 673 l 1
 855 655 l 1
 834 655 805 657 805 630 c 2
 805 349 l 2
 805 326 824 311 855 311 c 1
 855 293 l 1
 695 293 l 1
 695 311 l 1
 726 311 746 326 746 349 c 2
 746 616 l 1
 612 293 l 1
 594 293 l 1
 450 600 l 1
 450 349 l 2
 450 326 470 311 501 311 c 1
 501 293 l 1
 372 293 l 1
99 293 m 1
 99 311 l 1
 130 311 150 326 150 349 c 2
 150 651 l 1
 113 650 l 2
 57 648 34 619 36 575 c 1
 18 576 l 1
 21 673 l 1
 338 673 l 1
 341 576 l 1
 323 575 l 1
 325 619 302 648 246 650 c 2
 209 651 l 1
 209 349 l 2
 209 326 228 311 259 311 c 1
 259 293 l 1
 99 293 l 1
EndSplineSet
EndChar

StartChar: radicalex
Encoding: 382 -1 163
Width: 500
Flags: HMW
HStem: 881 36<480 1090 480 1090>
LayerCount: 2
Fore
SplineSet
480 881 m 1
 480 917 l 1
 1090 917 l 1
 1090 881 l 1
 480 881 l 1
EndSplineSet
EndChar

StartChar: arrowvertex
Encoding: 383 -1 164
Width: 603
Flags: HMW
HStem: -120 21G<280 280 280 336> 990 20G<280 336 336 336>
VStem: 280 56<-120 1010 -120 1010>
LayerCount: 2
Fore
SplineSet
280 -120 m 1
 280 1010 l 1
 336 1010 l 1
 336 -120 l 1
 280 -120 l 1
EndSplineSet
EndChar

StartChar: arrowhorizex
Encoding: 384 -1 165
Width: 1000
Flags: HMW
HStem: 220 56<-60 1050 -60 1050>
VStem: -60 1110<220 276 220 276>
LayerCount: 2
Fore
SplineSet
-60 220 m 1
 -60 276 l 1
 1050 276 l 1
 1050 220 l 1
 -60 220 l 1
EndSplineSet
EndChar

StartChar: registersans
Encoding: 385 -1 166
Width: 790
Flags: HMW
HStem: -20 40<310.5 395> 308 43<315 437 437 440 315 437> 482 43<315 436 436 437 315 315> 630 40<310 478.5>
VStem: 50 40<240 408.5 240 420> 266 49<136 308 351 482> 507 46 700 40<240.5 409>
LayerCount: 2
Fore
SplineSet
315 351 m 1
 437 351 l 2
 470 351 507 360 507 409 c 0
 507 474 467 482 437 482 c 2
 315 482 l 1
 315 351 l 1
266 136 m 1
 266 525 l 1
 436 525 l 2
 495 525 557 514 557 428 c 0
 557 379 544 361 507 333 c 1
 538 312 553 285 553 234 c 0
 553 197 557 173 581 145 c 1
 562 145 540 145 521 145 c 1
 512 163 504 165 503 193 c 0
 502 229 511 308 440 308 c 2
 315 308 l 1
 315 136 l 1
 266 136 l 1
90 324 m 0
 90 156 226 20 395 20 c 0
 563 20 700 156 700 325 c 0
 700 493 563 630 394 630 c 0
 226 630 90 493 90 324 c 0
50 325 m 0
 50 515 204 670 395 670 c 0
 585 670 740 515 740 325 c 0
 740 134 585 -19 395 -20 c 0
 204 -20 50 134 50 325 c 0
EndSplineSet
EndChar

StartChar: copyrightsans
Encoding: 386 -1 167
Width: 790
Flags: HMW
HStem: -15 40<310 478 310 489.5> 125 46<362 433.5 362 459> 483 43<358.5 430.5> 635 40<310 478>
VStem: 49 40<246 414 246 425.5> 227 49<298.5 377 298.5 386> 512 45 699 40<246 414>
LayerCount: 2
Fore
SplineSet
89 330 m 0
 89 162 226 25 394 25 c 0
 562 25 699 162 699 330 c 0
 699 498 562 635 394 635 c 0
 226 635 89 498 89 330 c 0
49 330 m 0
 49 521 203 675 394 675 c 0
 585 675 739 521 739 330 c 0
 739 139 585 -15 394 -15 c 0
 203 -15 49 139 49 330 c 0
512 274 m 1
 559 274 l 1
 559 217 513 125 405 125 c 0
 293 125 227 222 227 334 c 0
 227 438 288 526 396 526 c 0
 484 526 555 494 557 404 c 1
 506 404 l 1
 504 455 464 483 397 483 c 0
 320 483 276 418 276 336 c 0
 276 261 319 171 405 171 c 0
 462 171 512 217 512 274 c 1
EndSplineSet
EndChar

StartChar: trademarksans
Encoding: 387 -1 168
Width: 786
Flags: HMW
HStem: 293 21G<130 130 130 179 367 416 367 367 676 676 676 725> 630 43<5 130 5 304 179 179 179 304>
VStem: 130 49<293 630 293 630> 367 49<293 602 293 673> 676 49<293 602 602 602>
LayerCount: 2
Fore
SplineSet
367 293 m 1
 367 673 l 1
 438 673 l 1
 546 355 l 1
 654 673 l 1
 725 673 l 1
 725 293 l 1
 676 293 l 1
 676 602 l 1
 571 298 l 1
 521 298 l 1
 416 602 l 1
 416 293 l 1
 367 293 l 1
130 293 m 1
 130 630 l 1
 5 630 l 1
 5 673 l 1
 304 673 l 1
 304 630 l 1
 179 630 l 1
 179 293 l 1
 130 293 l 1
EndSplineSet
EndChar

StartChar: parenlefttp
Encoding: 388 -1 169
Width: 384
Flags: HMW
HStem: -293 1209<24 436 24 436>
VStem: 24 84<-293 117 -293 370>
LayerCount: 2
Fore
SplineSet
24 -293 m 1
 24 117 l 2
 24 623 228 829 423 926 c 1
 436 916 l 1
 214 777 108 468 108 117 c 2
 108 -293 l 1
 24 -293 l 1
EndSplineSet
EndChar

StartChar: parenleftex
Encoding: 389 -1 170
Width: 384
Flags: HMW
HStem: 925 0<24 24 108 108>
VStem: 24 84<-85 925 -85 925>
LayerCount: 2
Fore
SplineSet
24 -85 m 1
 24 925 l 1
 108 925 l 1
 108 -85 l 1
 24 -85 l 1
EndSplineSet
EndChar

StartChar: parenleftbt
Encoding: 390 -1 171
Width: 384
Flags: HMW
HStem: -293 1219<24 429 24 428>
VStem: 24 84<516 926>
LayerCount: 2
Fore
SplineSet
429 -293 m 1
 428 -293 l 1
 233 -186 24 10 24 516 c 2
 24 926 l 1
 108 926 l 1
 108 516 l 2
 108 165 214 -134 436 -283 c 1
 429 -293 l 1
EndSplineSet
EndChar

StartChar: bracketlefttp
Encoding: 391 -1 172
Width: 384
Flags: HMW
HStem: 885 41<155.5 218 218 349>
VStem: 0 77<-80 750 -80 926>
LayerCount: 2
Fore
SplineSet
0 -80 m 1
 0 926 l 1
 349 926 l 1
 349 885 l 1
 218 885 l 2
 93 885 77 875 77 750 c 2
 77 -80 l 1
 0 -80 l 1
EndSplineSet
EndChar

StartChar: bracketleftex
Encoding: 392 -1 173
Width: 384
Flags: HMW
HStem: -79 1004<0 77 0 77>
VStem: 0 77<-79 925 -79 925>
LayerCount: 2
Fore
SplineSet
0 -79 m 1
 0 925 l 1
 77 925 l 1
 77 -79 l 1
 0 -79 l 1
EndSplineSet
EndChar

StartChar: bracketleftbt
Encoding: 393 -1 174
Width: 384
Flags: HMW
HStem: -80 41<218 340 218 340>
VStem: 0 77<33.5 96 96 926>
LayerCount: 2
Fore
SplineSet
0 -80 m 1
 0 926 l 1
 77 926 l 1
 77 96 l 2
 77 -29 93 -39 218 -39 c 2
 340 -39 l 1
 340 -80 l 1
 0 -80 l 1
EndSplineSet
EndChar

StartChar: bracelefttp
Encoding: 394 -1 175
Width: 494
Flags: HMW
HStem: 895 30<330 445 370 445>
VStem: 209 75<-85 735>
LayerCount: 2
Fore
SplineSet
284 -85 m 1
 209 -85 l 1
 209 735 l 2
 209 896 260 925 370 925 c 2
 445 925 l 1
 445 895 l 1
 370 895 l 2
 290 895 284 845 284 735 c 2
 284 -85 l 1
EndSplineSet
EndChar

StartChar: braceleftmid
Encoding: 395 -1 176
Width: 494
Flags: HMW
HStem: -85 1020<209 284 209 284>
VStem: 209 75<-85 150 -85 200 700 935>
LayerCount: 2
Fore
SplineSet
209 -85 m 1
 209 150 l 2
 209 250 173 365 20 410 c 1
 20 440 l 1
 173 485 209 600 209 700 c 2
 209 935 l 1
 284 935 l 1
 284 700 l 2
 284 547 221 464 85 425 c 1
 221 386 284 303 284 150 c 2
 284 -85 l 1
 209 -85 l 1
EndSplineSet
EndChar

StartChar: braceleftbt
Encoding: 396 -1 177
Width: 494
Flags: HMW
HStem: -75 30<305 445 360 445>
VStem: 209 75<111 935>
LayerCount: 2
Fore
SplineSet
209 935 m 1
 284 935 l 1
 284 111 l 2
 284 1 280 -45 360 -45 c 2
 445 -45 l 1
 445 -75 l 1
 360 -75 l 2
 250 -75 209 -50 209 111 c 2
 209 935 l 1
EndSplineSet
EndChar

StartChar: braceex
Encoding: 397 -1 178
Width: 494
Flags: HMW
HStem: -85 1020<209 284 209 284>
VStem: 209 75<-85 935 -85 935>
LayerCount: 2
Fore
SplineSet
209 -85 m 1
 209 935 l 1
 284 935 l 1
 284 -85 l 1
 209 -85 l 1
EndSplineSet
EndChar

StartChar: integralex
Encoding: 398 -1 179
Width: 686
Flags: HMW
HStem: -88 1063<308 378 308 378>
VStem: 308 70<-88 975 -88 975>
LayerCount: 2
Fore
SplineSet
308 -88 m 1
 308 975 l 1
 378 975 l 1
 378 -88 l 1
 308 -88 l 1
EndSplineSet
EndChar

StartChar: parenrighttp
Encoding: 399 -1 180
Width: 384
Flags: HMW
HStem: -293 1219<67 382 67 466>
VStem: 382 84<-293 127 -293 302.5>
LayerCount: 2
Fore
SplineSet
382 -293 m 1
 382 127 l 2
 382 478 276 777 54 916 c 1
 67 926 l 1
 262 829 466 633 466 127 c 2
 466 -293 l 1
 382 -293 l 1
EndSplineSet
EndChar

StartChar: parenrightex
Encoding: 400 -1 181
Width: 384
Flags: HMW
HStem: -85 1010<382 466 382 466>
VStem: 382 84<-85 925 -85 925>
LayerCount: 2
Fore
SplineSet
382 -85 m 1
 382 925 l 1
 466 925 l 1
 466 -85 l 1
 382 -85 l 1
EndSplineSet
EndChar

StartChar: parenrightbt
Encoding: 401 -1 182
Width: 384
Flags: HMW
HStem: -293 1219<67 466>
VStem: 382 84<511 926>
LayerCount: 2
Fore
SplineSet
54 -283 m 1
 276 -144 382 160 382 511 c 2
 382 926 l 1
 466 926 l 1
 466 511 l 2
 466 5 262 -196 67 -293 c 1
 54 -283 l 1
EndSplineSet
EndChar

StartChar: bracketrighttp
Encoding: 402 -1 183
Width: 384
Flags: HMW
HStem: 885 41<22 157 22 371>
VStem: 293 78<-80 749 749 811.5>
LayerCount: 2
Fore
SplineSet
293 -80 m 1
 293 749 l 2
 293 874 282 885 157 885 c 2
 22 885 l 1
 22 926 l 1
 371 926 l 1
 371 -80 l 1
 293 -80 l 1
EndSplineSet
EndChar

StartChar: bracketrightex
Encoding: 403 -1 184
Width: 384
Flags: HMW
HStem: -79 1004<294 371 294 371>
VStem: 294 77<-79 925 -79 925>
LayerCount: 2
Fore
SplineSet
294 -79 m 1
 294 925 l 1
 371 925 l 1
 371 -79 l 1
 294 -79 l 1
EndSplineSet
EndChar

StartChar: bracketrightbt
Encoding: 404 -1 185
Width: 384
Flags: HMW
HStem: -80 41<22 151 151 213.5 22 151>
VStem: 294 77<99 926 -80 926>
LayerCount: 2
Fore
SplineSet
22 -39 m 1
 151 -39 l 2
 276 -39 294 -28 294 99 c 2
 294 926 l 1
 371 926 l 1
 371 -80 l 1
 22 -80 l 1
 22 -39 l 1
EndSplineSet
EndChar

StartChar: bracerighttp
Encoding: 405 -1 186
Width: 494
Flags: HMW
HStem: 895 30<48 128 48 128>
VStem: 209 75<-85 735 -85 793>
LayerCount: 2
Fore
SplineSet
209 -85 m 1
 209 735 l 2
 209 851 198 895 128 895 c 2
 48 895 l 1
 48 925 l 1
 128 925 l 2
 261 925 284 887 284 735 c 2
 284 -85 l 1
 209 -85 l 1
EndSplineSet
EndChar

StartChar: bracerightmid
Encoding: 406 -1 187
Width: 494
Flags: HMW
HStem: -85 1020<209 284 209 284>
VStem: 209 75<-85 151 -85 227.5 699 935>
LayerCount: 2
Fore
SplineSet
209 -85 m 1
 209 151 l 2
 209 304 272 386 408 425 c 1
 272 464 209 546 209 699 c 2
 209 935 l 1
 284 935 l 1
 284 699 l 2
 284 599 320 485 473 440 c 1
 473 410 l 1
 320 365 284 251 284 151 c 2
 284 -85 l 1
 209 -85 l 1
EndSplineSet
EndChar

StartChar: bracerightbt
Encoding: 407 -1 188
Width: 494
Flags: HMW
HStem: -75 30<48 128 48 128>
VStem: 209 75<116 935>
LayerCount: 2
Fore
SplineSet
48 -45 m 1
 128 -45 l 2
 198 -45 209 -14 209 116 c 2
 209 935 l 1
 284 935 l 1
 284 116 l 2
 284 -35 258 -75 128 -75 c 2
 48 -75 l 1
 48 -45 l 1
EndSplineSet
EndChar

StartChar: apple
Encoding: 408 -1 189
Width: 790
Flags: HMW
HStem: -3 21G<208.5 303 516 573> 616 192
LayerCount: 2
Fore
SplineSet
406 616 m 1
 401 712 487 808 566 808 c 1
 587 714 497 613 406 616 c 1
733 213 m 1
 658 84 616 -3 530 -3 c 0
 502 -3 484 9 462 18 c 0
 447 24 431 30 409 30 c 0
 388 30 372 24 356 17 c 0
 335 8 316 -3 290 -3 c 0
 127 -3 56 251 56 385 c 0
 56 526 158 622 269 622 c 0
 296 622 318 613 341 604 c 0
 362 596 384 588 409 588 c 0
 438 588 460 596 481 604 c 0
 502 612 523 619 552 619 c 0
 609 619 683 594 712 542 c 1
 649 512 619 446 619 379 c 0
 619 306 657 234 733 213 c 1
EndSplineSet
EndChar
